<svg width="1440" height="517" viewBox="0 0 1440 517" fill="none" xmlns="http://www.w3.org/2000/svg">
<g opacity="0.8" clip-path="url(#clip0_11244_667)">
<rect width="1440" height="517" fill="url(#paint0_linear_11244_667)"/>
<g opacity="0.72">
<mask id="mask0_11244_667" style="mask-type:luminance" maskUnits="userSpaceOnUse" x="444" y="-6" width="986" height="491">
<path d="M1430 -6H444V485H1430V-6Z" fill="white"/>
</mask>
<g mask="url(#mask0_11244_667)">
<path d="M1382.43 257.624C1381.09 260.044 1379.74 262.378 1378.67 265.057C1377.42 268.255 1376.61 271.54 1375.89 274.91C1374.91 279.751 1374.28 284.764 1373.47 289.604C1372.67 294.184 1371.59 298.679 1369.71 302.914C1367.56 307.754 1366.13 312.94 1364.96 318.299C1363.97 322.707 1363.17 327.201 1362.09 331.609C1360.66 337.313 1358.78 342.672 1355.91 347.598C1352.51 353.476 1348.2 357.884 1342.47 360.131C1339.78 361.168 1336.92 361.859 1334.05 361.859C1320.16 361.859 1306.27 361.859 1292.38 361.859C1290.95 361.859 1290.41 361.168 1290.59 359.267C1290.68 357.884 1290.95 356.587 1291.4 355.291C1291.93 353.821 1292.38 352.352 1292.74 350.883C1293.28 348.895 1294.53 347.858 1296.24 347.426C1297.49 347.08 1298.74 346.907 1300 347.253C1300.54 347.426 1301.16 347.339 1301.7 347.339C1305.02 347.339 1308.24 347.426 1311.56 347.339C1315.95 347.253 1320.34 347.685 1324.73 347.685C1329.3 347.771 1333.51 346.648 1337.54 344.228C1340.95 342.24 1343.99 339.56 1346.14 335.671C1347.49 333.251 1348.29 330.658 1348.47 327.719C1348.56 325.472 1348.74 323.312 1348.74 321.064C1348.74 320.286 1348.65 319.595 1348.56 318.904C1348.12 316.138 1347.13 314.928 1344.8 314.409C1343.19 313.977 1341.57 314.15 1339.96 314.323C1334.67 314.841 1329.48 315.878 1324.19 317.002C1315.23 318.904 1306.45 321.324 1297.67 324.435C1294.44 325.559 1291.4 327.374 1288.26 328.93C1286.65 329.707 1285.04 330.399 1283.51 331.09C1282.62 331.522 1281.63 331.609 1280.65 331.35C1279.48 331.004 1279.21 330.745 1279.3 329.362C1279.39 326.509 1280.2 324.003 1281.81 321.929C1283.51 319.681 1285.66 318.558 1287.99 317.521C1288.53 317.261 1289.16 317.089 1289.69 316.829C1289.61 316.224 1289.16 316.138 1288.8 315.965C1287.81 315.36 1286.83 314.582 1286.02 313.631C1284.14 311.643 1283.69 309.137 1284.14 306.285C1284.5 303.778 1285.39 301.445 1286.2 299.111C1287.45 295.222 1288.44 291.246 1289.16 287.184C1289.43 285.628 1289.52 283.986 1289.69 282.343C1290.05 278.368 1291.93 275.515 1294.44 273.268C1297.85 270.157 1301.79 268.774 1305.91 267.996C1308.69 267.477 1311.47 266.872 1314.25 266.527C1315.68 266.354 1317.11 266.354 1318.55 266.44C1319.44 266.44 1319.62 266.959 1319.17 267.823C1318.37 269.12 1317.2 269.898 1315.95 270.503C1314.69 271.108 1313.35 271.54 1312.1 272.145C1309.94 273.182 1307.79 274.392 1305.82 275.861C1302.06 278.713 1299.73 282.603 1299.19 288.048C1298.83 291.246 1297.76 294.098 1296.59 296.95C1295.79 299.025 1294.98 301.012 1294.35 303.173C1293.37 306.717 1294.53 309.31 1297.58 310.261C1299.73 310.866 1301.97 310.693 1304.12 310.52C1304.57 310.52 1305.02 310.347 1305.46 310.347C1308.96 310.433 1312.36 310.088 1315.86 309.915C1320.43 309.742 1324.91 309.31 1329.48 309.051C1331.54 308.964 1333.69 308.878 1335.75 308.791C1341.75 308.273 1346.32 304.902 1349.46 298.765C1350.27 297.21 1350.89 295.654 1351.61 294.098C1351.79 293.752 1351.88 293.493 1352.15 293.147C1353.22 291.678 1354.57 292.024 1355.1 293.839C1355.28 294.271 1355.19 295.049 1355.73 295.135C1356.27 295.222 1356.54 294.53 1356.72 294.012C1357.88 291.332 1358.87 288.566 1359.23 285.541C1359.85 280.701 1358.33 276.812 1355.28 273.614C1352.33 270.675 1348.92 268.687 1345.52 266.872C1342.65 265.317 1339.78 264.02 1336.83 262.724C1334.05 261.514 1332.17 259.267 1331.36 255.809C1331.09 254.859 1331.09 253.908 1331.09 252.957C1331.09 252.179 1331.54 251.574 1332.08 251.229C1333.24 250.364 1334.41 250.537 1335.66 251.056C1338.35 252.093 1341.04 252.957 1343.81 253.649C1346.95 254.426 1350.18 254.945 1353.4 255.204C1355.19 255.377 1356.9 255.464 1358.69 255.464C1361.91 255.464 1365.05 255.031 1368.28 254.426C1372.67 253.649 1376.97 253.476 1381.36 253.476C1382.43 253.476 1382.52 254.254 1382.79 255.118C1382.43 255.896 1382.43 256.76 1382.43 257.624Z" fill="white"/>
<path d="M1135.4 112.334C1140.51 118.385 1144.18 125.558 1147.5 133.078C1146.96 133.424 1146.69 133.078 1146.33 132.818C1143.2 130.658 1140.42 127.978 1137.64 125.213C1133.61 121.237 1129.58 117.175 1124.83 114.582C1121.78 112.939 1118.64 111.902 1115.33 111.643C1114.61 111.557 1113.99 111.47 1113 111.124C1114.43 110.433 1115.6 109.828 1116.85 109.396C1122.14 107.322 1127.43 105.593 1132.98 104.815C1136.65 104.296 1140.42 103.864 1144.09 104.124C1152.34 104.642 1160.22 106.717 1167.84 110.692C1172.32 113.026 1176.62 115.878 1180.74 119.162C1181.19 119.508 1181.55 120.2 1182.08 119.854C1182.62 119.508 1182.35 118.73 1182.35 118.125C1182.35 117.002 1182.35 115.878 1182.35 114.841C1182.44 108.532 1180.47 103.259 1177.15 98.592C1175.36 96.0856 1173.3 94.0112 1171.06 92.1098C1170.7 91.764 1170.26 91.5048 1169.99 90.8997C1170.43 90.3812 1170.97 90.554 1171.51 90.6405C1174.65 90.9862 1177.69 91.764 1180.65 92.8876C1185.4 94.7027 1190.06 97.0363 1194.54 99.7156C1198.66 102.222 1202.69 104.901 1206.45 108.099C1206.81 108.445 1207.17 108.877 1207.8 108.877C1207.98 108.186 1207.71 107.494 1207.53 106.889C1206.1 101.358 1203.32 97.1227 1199.02 94.4434C1195.16 92.0233 1191.04 90.8133 1186.83 90.0354C1182.17 89.1711 1177.51 88.3933 1172.85 87.8747C1168.28 87.2697 1163.63 87.3561 1159.06 87.529C1157.26 87.6154 1155.38 88.0475 1153.59 88.3068C1153.14 88.3933 1152.51 88.739 1152.25 88.2204C1151.89 87.6154 1152.25 87.0104 1152.51 86.4918C1153.05 85.2818 1153.86 84.4175 1154.93 83.9853C1155.65 83.6396 1156.46 83.3803 1157.17 83.121C1162.73 81.6517 1168.37 80.4417 1174.02 79.5774C1178.14 78.9723 1182.17 78.5402 1186.29 78.2809C1192.3 77.8487 1198.21 78.0216 1204.13 78.108C1206.72 78.1945 1209.14 79.3181 1211.56 80.6145C1215.24 82.6889 1218.46 85.3682 1221.87 87.9611C1224.82 90.2083 1227.87 92.2826 1231.18 93.6655C1235.93 95.6534 1240.77 96.0856 1245.7 94.7027C1248.3 94.0112 1250.81 93.4062 1253.5 93.5791C1256.27 93.7519 1258.96 94.6162 1261.29 96.4313C1261.74 96.777 1262.1 97.2092 1262.55 97.5549C1262.9 97.9006 1262.99 98.4192 1262.81 98.9378C1262.55 99.7156 1262.19 100.321 1261.65 100.839C1260.93 101.444 1260.31 101.963 1259.59 102.568C1258.96 103.086 1258.33 103.778 1257.98 104.556C1257.53 105.42 1257.62 105.593 1258.33 105.939C1259.68 106.544 1260.93 107.149 1262.19 107.927C1265.68 110.087 1268.82 112.767 1271.86 115.792C1275.45 119.335 1278.85 123.138 1282.53 126.596C1288.35 132.127 1294.89 135.757 1302.24 137.14C1305.64 137.745 1309.05 138.177 1312.45 138.436C1315.14 138.696 1317.92 138.609 1320.61 138.696C1321.32 138.696 1322.13 138.869 1322.85 139.041C1325.98 139.819 1326.43 143.622 1325.54 145.869C1325.09 147.08 1324.37 148.117 1323.56 148.981C1321.5 150.969 1319.35 152.525 1317.11 154.08C1316.13 154.772 1315.05 155.463 1313.98 156.155C1312.54 157.105 1312.45 157.278 1313.35 158.92C1314.69 161.341 1315.77 163.761 1316.84 166.354C1318.99 171.453 1320.52 176.898 1321.32 182.516C1321.95 186.578 1321.86 190.64 1320.34 194.443C1319.8 195.653 1319.26 196.863 1318.91 198.16C1318.19 200.839 1318.73 203.173 1320.34 205.161C1322.13 207.408 1324.28 208.704 1326.61 210.001C1332.61 213.372 1338.62 217.002 1344.44 220.718C1349.82 224.175 1355.1 227.806 1360.39 231.522C1366.66 235.93 1372.76 240.511 1378.85 245.178C1379.03 245.351 1379.21 245.437 1379.39 245.61C1379.92 245.956 1380.01 246.474 1379.66 247.08C1378.58 249.154 1377.06 250.537 1375 250.623C1373.47 250.71 1371.95 250.277 1370.43 249.845C1365.77 248.549 1361.38 246.302 1357.17 243.536C1350.71 239.214 1344.44 234.547 1338.17 229.966C1329.3 223.484 1320.43 217.002 1311.47 210.606C1309.05 208.877 1306.54 207.149 1304.12 205.334C1303.58 204.901 1303.05 204.469 1302.51 203.951C1300.36 201.876 1299.82 199.456 1300.9 196.345C1301.52 194.357 1302.33 192.455 1302.69 190.381C1303.49 186.492 1302.6 183.207 1300 180.615C1298.12 178.627 1295.88 177.417 1293.55 176.379C1287.99 173.959 1282.17 172.576 1276.34 171.453C1269.71 170.156 1262.99 169.119 1256.45 167.045C1252.33 165.748 1248.21 164.193 1244.27 162.118C1243.28 161.6 1242.39 161.081 1241.49 160.303C1240.86 159.785 1240.32 159.18 1239.97 158.402C1239.61 157.71 1239.61 156.933 1239.79 156.155C1240.5 153.821 1242.47 152.438 1244.54 152.87C1245.88 153.13 1247.13 153.821 1248.39 154.513C1254.3 157.883 1260.4 158.92 1266.85 157.71C1267.92 157.538 1268.91 157.019 1269.8 156.414C1270.34 156.068 1270.43 155.55 1270.07 155.031C1269.44 153.994 1268.73 153.303 1267.65 152.957C1266.4 152.525 1265.14 152.352 1263.89 152.179C1258.16 151.401 1253.23 148.635 1249.11 143.795C1247.49 141.894 1246.06 139.819 1244.8 137.572C1244.36 136.794 1244 135.93 1243.82 134.979C1243.55 133.683 1243.73 132.818 1244.8 132.213C1246.06 131.436 1247.49 131.263 1248.93 131.263C1250.27 131.176 1251.61 131.263 1252.96 131.176C1254.75 131.09 1256.54 130.658 1258.16 129.707C1260.66 128.324 1262.19 125.818 1262.99 122.793C1263.8 119.681 1262.99 117.607 1260.48 116.224C1258.78 115.273 1256.9 114.668 1255.02 114.409C1251.97 113.977 1248.93 113.717 1245.88 113.372C1244.98 113.285 1244.89 113.285 1244.8 114.409C1244.45 118.385 1242.74 121.237 1239.88 123.311C1238.26 124.435 1236.65 125.385 1234.86 126.077C1233.07 126.768 1231.72 128.065 1230.74 130.053C1229.84 131.868 1229.21 133.856 1228.05 135.498C1227.51 136.189 1226.97 136.708 1226.35 137.226C1225.81 137.745 1225.27 137.745 1224.73 137.054C1222.85 134.979 1220.88 132.905 1218.91 130.917C1215.41 127.201 1211.83 123.743 1208.16 120.286C1203.77 116.224 1199.2 112.507 1194.54 108.964C1194.27 108.791 1194 108.618 1193.73 108.445C1193.64 108.445 1193.55 108.445 1193.37 108.532C1193.64 110.001 1194.09 111.297 1194.36 112.767C1195.16 116.742 1194.81 120.545 1193.73 124.262C1192.75 127.806 1191.49 131.263 1189.88 134.461C1189.25 135.757 1189.25 135.757 1188.27 134.806C1185.58 132.3 1182.8 129.966 1179.93 127.892C1175.72 124.867 1171.33 122.447 1166.76 120.373C1160.76 117.607 1154.58 115.705 1148.21 114.409C1144 113.458 1139.7 112.853 1135.49 112.507C1135.58 112.162 1135.58 112.162 1135.4 112.334ZM1223.3 124.435C1223.39 122.706 1222.94 121.237 1222.76 119.681C1222.49 117.088 1222.14 114.495 1221.42 111.989C1220.61 109.309 1219.36 106.976 1217.48 105.161C1216.67 104.383 1216.58 104.469 1215.86 105.42C1215.24 106.284 1214.97 107.322 1214.61 108.359C1213.89 110.606 1212.82 112.334 1211.02 113.372C1210.93 113.458 1210.85 113.545 1210.76 113.631C1210.85 114.063 1211.2 114.063 1211.38 114.15C1213.8 115.014 1215.68 116.656 1217.21 118.99C1218.01 120.113 1218.82 121.15 1219.72 122.188C1220.79 123.225 1221.87 124.089 1223.3 124.435Z" fill="white"/>
<path d="M1259.77 200.667C1259.77 200.234 1259.5 200.148 1259.32 199.975C1256.99 198.074 1254.66 195.999 1252.42 193.925C1251.97 193.493 1251.61 193.061 1251.35 192.542C1250.54 190.986 1250.81 189.776 1252.24 189.171C1253.32 188.739 1254.48 188.653 1255.65 188.739C1258.42 188.912 1261.2 189.258 1263.98 190.208C1270.52 192.369 1276.61 195.654 1281.99 200.667C1283.6 202.222 1285.04 204.037 1286.2 206.025C1286.74 206.976 1287.1 207.927 1286.92 209.137C1286.74 210.26 1286.38 210.692 1285.39 210.779C1284.32 210.952 1283.33 210.606 1282.35 210.087C1281.36 209.482 1280.38 208.964 1279.3 208.705C1279.03 208.618 1278.76 208.532 1278.58 208.877C1278.41 209.223 1278.67 209.482 1278.85 209.655C1280.73 212.162 1282.89 214.236 1285.21 216.051C1288.26 218.385 1291.49 220.373 1294.53 222.533C1297.31 224.521 1299.91 226.682 1302.24 229.361C1303.05 230.312 1303.76 231.349 1304.48 232.473C1304.57 232.646 1304.75 232.905 1304.66 233.164C1304.48 233.51 1304.21 233.51 1303.94 233.424C1302.33 233.164 1300.63 232.905 1299.01 232.3C1296.33 231.263 1293.82 229.966 1291.31 228.324C1287.72 225.991 1284.05 223.743 1280.11 222.188C1276.79 220.891 1273.39 220.113 1269.89 220.286C1265.86 220.459 1261.83 220.027 1257.89 218.644C1254.84 217.607 1251.88 216.138 1248.93 214.582C1246.87 213.545 1244.71 212.421 1242.65 211.384C1241.76 210.952 1241.76 210.692 1242.3 209.742C1244.8 205.852 1248.12 203.605 1252.06 202.482C1254.48 201.79 1256.9 201.272 1259.32 200.839C1259.5 200.926 1259.68 200.926 1259.77 200.667Z" fill="white"/>
<path d="M664.894 159.263C664.495 159.981 664.097 160.673 663.778 161.468C663.406 162.416 663.167 163.39 662.954 164.389C662.662 165.824 662.476 167.311 662.237 168.746C661.998 170.104 661.679 171.437 661.121 172.693C660.483 174.128 660.058 175.666 659.713 177.255C659.421 178.562 659.181 179.895 658.863 181.202C658.437 182.893 657.879 184.482 657.029 185.943C656.02 187.686 654.744 188.993 653.044 189.659C652.247 189.967 651.397 190.172 650.546 190.172C646.428 190.172 642.31 190.172 638.192 190.172C637.767 190.172 637.607 189.967 637.66 189.403C637.687 188.993 637.767 188.608 637.899 188.224C638.059 187.788 638.192 187.353 638.298 186.917C638.457 186.327 638.829 186.02 639.334 185.892C639.706 185.789 640.078 185.738 640.45 185.841C640.609 185.892 640.795 185.866 640.955 185.866C641.938 185.866 642.894 185.892 643.877 185.866C645.179 185.841 646.481 185.969 647.783 185.969C649.138 185.994 650.387 185.661 651.583 184.944C652.592 184.354 653.496 183.56 654.133 182.406C654.532 181.689 654.771 180.92 654.824 180.048C654.851 179.382 654.904 178.741 654.904 178.075C654.904 177.844 654.877 177.639 654.851 177.434C654.718 176.614 654.425 176.255 653.735 176.102C653.256 175.973 652.778 176.025 652.3 176.076C650.732 176.23 649.191 176.537 647.624 176.87C644.967 177.434 642.363 178.152 639.759 179.075C638.803 179.408 637.899 179.946 636.969 180.407C636.491 180.638 636.013 180.843 635.561 181.048C635.296 181.176 635.003 181.202 634.711 181.125C634.366 181.022 634.286 180.945 634.313 180.535C634.339 179.69 634.578 178.946 635.057 178.331C635.561 177.665 636.199 177.332 636.89 177.024C637.049 176.947 637.235 176.896 637.395 176.819C637.368 176.64 637.235 176.614 637.129 176.563C636.837 176.383 636.544 176.153 636.305 175.871C635.747 175.281 635.614 174.538 635.747 173.692C635.854 172.949 636.119 172.257 636.358 171.565C636.73 170.412 637.023 169.233 637.235 168.028C637.315 167.567 637.341 167.08 637.395 166.593C637.501 165.414 638.059 164.569 638.803 163.902C639.812 162.98 640.981 162.57 642.204 162.339C643.027 162.185 643.851 162.006 644.675 161.903C645.1 161.852 645.525 161.852 645.95 161.878C646.216 161.878 646.269 162.031 646.136 162.288C645.897 162.672 645.551 162.903 645.179 163.082C644.807 163.262 644.409 163.39 644.037 163.569C643.399 163.877 642.762 164.235 642.177 164.671C641.061 165.517 640.37 166.67 640.211 168.285C640.105 169.233 639.786 170.079 639.44 170.925C639.201 171.54 638.962 172.129 638.776 172.77C638.484 173.821 638.829 174.589 639.733 174.871C640.37 175.051 641.035 175 641.672 174.948C641.805 174.948 641.938 174.897 642.071 174.897C643.107 174.923 644.117 174.82 645.153 174.769C646.508 174.718 647.836 174.589 649.191 174.513C649.802 174.487 650.44 174.461 651.051 174.436C652.831 174.282 654.186 173.282 655.116 171.463C655.355 171.001 655.541 170.54 655.754 170.079C655.807 169.976 655.834 169.899 655.913 169.797C656.232 169.361 656.631 169.464 656.79 170.002C656.843 170.13 656.817 170.361 656.976 170.386C657.136 170.412 657.215 170.207 657.268 170.053C657.614 169.259 657.906 168.439 658.012 167.542C658.198 166.106 657.747 164.953 656.843 164.005C655.967 163.133 654.957 162.544 653.947 162.006C653.097 161.544 652.247 161.16 651.37 160.776C650.546 160.417 649.988 159.75 649.749 158.725C649.67 158.443 649.67 158.161 649.67 157.879C649.67 157.649 649.802 157.469 649.962 157.367C650.307 157.111 650.653 157.162 651.025 157.316C651.822 157.623 652.619 157.879 653.442 158.085C654.372 158.315 655.329 158.469 656.285 158.546C656.817 158.597 657.322 158.623 657.853 158.623C658.809 158.623 659.739 158.495 660.696 158.315C661.998 158.085 663.273 158.033 664.575 158.033C664.894 158.033 664.92 158.264 665 158.52C664.894 158.751 664.894 159.007 664.894 159.263Z" fill="white"/>
<path d="M591.642 116.181C593.157 117.975 594.246 120.102 595.229 122.332C595.07 122.434 594.99 122.332 594.884 122.255C593.954 121.614 593.13 120.82 592.307 120C591.111 118.821 589.915 117.616 588.507 116.847C587.604 116.36 586.674 116.053 585.691 115.976C585.478 115.95 585.292 115.925 585 115.822C585.425 115.617 585.77 115.438 586.142 115.31C587.71 114.695 589.278 114.182 590.925 113.951C592.014 113.798 593.13 113.669 594.22 113.746C596.664 113.9 599.002 114.515 601.26 115.694C602.589 116.386 603.864 117.232 605.086 118.206C605.219 118.308 605.325 118.513 605.485 118.411C605.644 118.308 605.565 118.078 605.565 117.898C605.565 117.565 605.565 117.232 605.565 116.924C605.591 115.053 605.007 113.49 604.024 112.106C603.492 111.363 602.881 110.748 602.217 110.184C602.111 110.081 601.978 110.005 601.898 109.825C602.031 109.671 602.19 109.723 602.35 109.748C603.28 109.851 604.183 110.081 605.06 110.415C606.468 110.953 607.85 111.645 609.178 112.439C610.4 113.182 611.596 113.977 612.712 114.925C612.818 115.028 612.924 115.156 613.11 115.156C613.163 114.951 613.084 114.746 613.031 114.566C612.605 112.926 611.782 111.67 610.506 110.876C609.364 110.158 608.142 109.799 606.893 109.569C605.511 109.313 604.13 109.082 602.748 108.928C601.393 108.749 600.012 108.774 598.657 108.826C598.125 108.851 597.567 108.979 597.036 109.056C596.903 109.082 596.717 109.184 596.637 109.031C596.531 108.851 596.637 108.672 596.717 108.518C596.876 108.159 597.116 107.903 597.434 107.775C597.647 107.672 597.886 107.595 598.099 107.519C599.746 107.083 601.42 106.724 603.094 106.468C604.316 106.288 605.511 106.16 606.734 106.083C608.514 105.955 610.267 106.006 612.021 106.032C612.791 106.058 613.509 106.391 614.226 106.775C615.316 107.39 616.272 108.185 617.282 108.954C618.158 109.62 619.062 110.235 620.045 110.645C621.453 111.235 622.888 111.363 624.349 110.953C625.12 110.748 625.863 110.568 626.661 110.62C627.484 110.671 628.281 110.927 628.972 111.465C629.105 111.568 629.211 111.696 629.344 111.799C629.45 111.901 629.477 112.055 629.424 112.209C629.344 112.439 629.238 112.619 629.078 112.772C628.866 112.952 628.68 113.106 628.467 113.285C628.281 113.439 628.095 113.644 627.989 113.874C627.856 114.131 627.883 114.182 628.095 114.285C628.494 114.464 628.866 114.643 629.238 114.874C630.274 115.515 631.204 116.309 632.107 117.206C633.17 118.257 634.18 119.385 635.269 120.41C636.996 122.05 638.936 123.126 641.114 123.537C642.124 123.716 643.134 123.844 644.143 123.921C644.94 123.998 645.764 123.972 646.561 123.998C646.773 123.998 647.013 124.049 647.225 124.1C648.155 124.331 648.288 125.459 648.022 126.125C647.889 126.484 647.677 126.791 647.438 127.048C646.827 127.637 646.189 128.098 645.525 128.56C645.232 128.765 644.914 128.97 644.595 129.175C644.17 129.457 644.143 129.508 644.409 129.995C644.807 130.713 645.126 131.43 645.445 132.199C646.083 133.711 646.534 135.326 646.774 136.992C646.959 138.196 646.933 139.401 646.481 140.528C646.322 140.887 646.162 141.246 646.056 141.63C645.844 142.425 646.003 143.117 646.481 143.706C647.013 144.373 647.65 144.757 648.341 145.142C650.121 146.141 651.901 147.218 653.628 148.32C655.223 149.345 656.79 150.421 658.358 151.523C660.218 152.83 662.024 154.189 663.831 155.573C663.884 155.624 663.937 155.649 663.99 155.701C664.15 155.803 664.176 155.957 664.07 156.136C663.751 156.752 663.3 157.162 662.688 157.187C662.237 157.213 661.785 157.085 661.333 156.957C659.952 156.572 658.65 155.906 657.401 155.086C655.488 153.804 653.628 152.42 651.769 151.062C649.138 149.14 646.508 147.218 643.851 145.321C643.134 144.808 642.39 144.296 641.672 143.758C641.513 143.63 641.353 143.501 641.194 143.348C640.556 142.733 640.397 142.015 640.716 141.092C640.902 140.503 641.141 139.939 641.247 139.324C641.486 138.171 641.221 137.197 640.45 136.428C639.892 135.838 639.228 135.48 638.537 135.172C636.89 134.454 635.163 134.044 633.436 133.711C631.47 133.327 629.477 133.019 627.537 132.404C626.315 132.02 625.093 131.558 623.924 130.943C623.632 130.789 623.366 130.636 623.1 130.405C622.914 130.251 622.755 130.072 622.649 129.841C622.542 129.636 622.542 129.406 622.595 129.175C622.808 128.483 623.393 128.073 624.004 128.201C624.402 128.278 624.774 128.483 625.146 128.688C626.9 129.687 628.706 129.995 630.619 129.636C630.938 129.585 631.23 129.431 631.496 129.252C631.656 129.149 631.682 128.995 631.576 128.842C631.39 128.534 631.177 128.329 630.859 128.227C630.487 128.098 630.115 128.047 629.743 127.996C628.042 127.765 626.581 126.945 625.359 125.51C624.88 124.946 624.455 124.331 624.083 123.665C623.951 123.434 623.844 123.178 623.791 122.896C623.711 122.511 623.765 122.255 624.083 122.076C624.455 121.845 624.88 121.794 625.306 121.794C625.704 121.768 626.103 121.794 626.501 121.768C627.033 121.743 627.564 121.614 628.042 121.332C628.786 120.922 629.238 120.179 629.477 119.282C629.716 118.36 629.477 117.744 628.733 117.334C628.228 117.052 627.67 116.873 627.112 116.796C626.209 116.668 625.306 116.591 624.402 116.489C624.136 116.463 624.11 116.463 624.083 116.796C623.977 117.975 623.472 118.821 622.622 119.436C622.144 119.769 621.666 120.051 621.134 120.256C620.603 120.461 620.204 120.846 619.912 121.435C619.646 121.973 619.46 122.563 619.115 123.05C618.956 123.255 618.796 123.408 618.61 123.562C618.451 123.716 618.291 123.716 618.132 123.511C617.574 122.896 616.989 122.281 616.405 121.691C615.369 120.589 614.306 119.564 613.217 118.539C611.915 117.334 610.56 116.232 609.178 115.182C609.098 115.13 609.019 115.079 608.939 115.028C608.912 115.028 608.886 115.028 608.833 115.053C608.912 115.489 609.045 115.874 609.125 116.309C609.364 117.488 609.258 118.616 608.939 119.718C608.647 120.769 608.275 121.794 607.796 122.742C607.61 123.126 607.61 123.126 607.318 122.845C606.521 122.101 605.697 121.409 604.847 120.794C603.598 119.897 602.297 119.18 600.942 118.565C599.161 117.744 597.328 117.181 595.442 116.796C594.193 116.514 592.918 116.335 591.669 116.232C591.695 116.13 591.695 116.13 591.642 116.181ZM617.707 119.769C617.733 119.257 617.6 118.821 617.547 118.36C617.468 117.591 617.361 116.822 617.149 116.079C616.91 115.284 616.538 114.592 615.98 114.054C615.741 113.823 615.714 113.849 615.501 114.131C615.315 114.387 615.236 114.695 615.13 115.002C614.917 115.668 614.598 116.181 614.067 116.489C614.04 116.514 614.014 116.54 613.987 116.565C614.014 116.694 614.12 116.694 614.173 116.719C614.89 116.976 615.448 117.462 615.9 118.154C616.139 118.488 616.378 118.795 616.644 119.103C616.963 119.41 617.282 119.667 617.707 119.769Z" fill="white"/>
<path d="M628.52 142.374C628.52 142.246 628.441 142.22 628.388 142.169C627.697 141.605 627.006 140.99 626.342 140.375C626.209 140.247 626.103 140.118 626.023 139.965C625.784 139.503 625.863 139.145 626.289 138.965C626.607 138.837 626.953 138.811 627.298 138.837C628.122 138.888 628.946 138.991 629.769 139.273C631.709 139.913 633.515 140.887 635.11 142.374C635.588 142.835 636.013 143.373 636.358 143.963C636.518 144.245 636.624 144.527 636.571 144.885C636.518 145.219 636.411 145.347 636.119 145.372C635.8 145.424 635.508 145.321 635.216 145.167C634.924 144.988 634.631 144.834 634.312 144.757C634.233 144.732 634.153 144.706 634.1 144.809C634.047 144.911 634.127 144.988 634.18 145.039C634.738 145.782 635.375 146.398 636.066 146.936C636.969 147.628 637.926 148.217 638.829 148.858C639.653 149.447 640.423 150.088 641.114 150.883C641.353 151.165 641.566 151.472 641.778 151.805C641.805 151.857 641.858 151.933 641.832 152.01C641.778 152.113 641.699 152.113 641.619 152.087C641.141 152.01 640.636 151.933 640.158 151.754C639.361 151.446 638.617 151.062 637.873 150.575C636.81 149.883 635.721 149.217 634.552 148.755C633.569 148.371 632.559 148.14 631.523 148.192C630.327 148.243 629.131 148.115 627.962 147.705C627.059 147.397 626.182 146.961 625.306 146.5C624.694 146.193 624.057 145.859 623.446 145.552C623.18 145.424 623.18 145.347 623.339 145.065C624.083 143.912 625.066 143.245 626.235 142.912C626.953 142.707 627.67 142.553 628.388 142.425C628.441 142.451 628.494 142.451 628.52 142.374Z" fill="white"/>
<path d="M874.894 89.2634C874.495 89.981 874.097 90.673 873.778 91.4675C873.406 92.4158 873.167 93.3897 872.954 94.3892C872.662 95.8244 872.476 97.3109 872.237 98.7461C871.998 100.104 871.679 101.437 871.121 102.693C870.483 104.128 870.058 105.666 869.713 107.255C869.421 108.562 869.181 109.895 868.863 111.202C868.437 112.893 867.879 114.482 867.029 115.943C866.02 117.686 864.744 118.993 863.044 119.659C862.247 119.967 861.397 120.172 860.546 120.172C856.428 120.172 852.31 120.172 848.192 120.172C847.767 120.172 847.607 119.967 847.66 119.403C847.687 118.993 847.767 118.608 847.899 118.224C848.059 117.788 848.192 117.353 848.298 116.917C848.457 116.327 848.829 116.02 849.334 115.892C849.706 115.789 850.078 115.738 850.45 115.841C850.609 115.892 850.795 115.866 850.955 115.866C851.938 115.866 852.894 115.892 853.877 115.866C855.179 115.841 856.481 115.969 857.783 115.969C859.138 115.994 860.387 115.661 861.583 114.944C862.592 114.354 863.496 113.56 864.133 112.406C864.532 111.689 864.771 110.92 864.824 110.048C864.851 109.382 864.904 108.741 864.904 108.075C864.904 107.844 864.877 107.639 864.851 107.434C864.718 106.614 864.425 106.255 863.735 106.102C863.256 105.973 862.778 106.025 862.3 106.076C860.732 106.23 859.191 106.537 857.624 106.87C854.967 107.434 852.363 108.152 849.759 109.075C848.803 109.408 847.899 109.946 846.969 110.407C846.491 110.638 846.013 110.843 845.561 111.048C845.296 111.176 845.003 111.202 844.711 111.125C844.366 111.022 844.286 110.945 844.313 110.535C844.339 109.69 844.578 108.946 845.057 108.331C845.561 107.665 846.199 107.332 846.89 107.024C847.049 106.947 847.235 106.896 847.395 106.819C847.368 106.64 847.235 106.614 847.129 106.563C846.837 106.383 846.544 106.153 846.305 105.871C845.747 105.281 845.614 104.538 845.747 103.692C845.854 102.949 846.119 102.257 846.358 101.565C846.73 100.412 847.023 99.233 847.235 98.0285C847.315 97.5672 847.341 97.0802 847.395 96.5933C847.501 95.4144 848.059 94.5686 848.803 93.9023C849.812 92.9796 850.981 92.5696 852.204 92.3389C853.027 92.1851 853.851 92.0057 854.675 91.9032C855.1 91.8519 855.525 91.8519 855.95 91.8776C856.216 91.8776 856.269 92.0314 856.136 92.2876C855.897 92.6721 855.551 92.9027 855.179 93.0821C854.807 93.2615 854.409 93.3897 854.037 93.5691C853.399 93.8766 852.762 94.2354 852.177 94.6711C851.061 95.5169 850.37 96.6702 850.211 98.2848C850.105 99.233 849.786 100.079 849.44 100.925C849.201 101.54 848.962 102.129 848.776 102.77C848.484 103.821 848.829 104.589 849.733 104.871C850.37 105.051 851.035 105 851.672 104.948C851.805 104.948 851.938 104.897 852.071 104.897C853.107 104.923 854.117 104.82 855.153 104.769C856.508 104.718 857.836 104.589 859.191 104.513C859.802 104.487 860.44 104.461 861.051 104.436C862.831 104.282 864.186 103.282 865.116 101.463C865.355 101.001 865.541 100.54 865.754 100.079C865.807 99.9763 865.834 99.8994 865.913 99.7969C866.232 99.3612 866.631 99.4637 866.79 100.002C866.843 100.13 866.817 100.361 866.976 100.386C867.136 100.412 867.215 100.207 867.268 100.053C867.614 99.2587 867.906 98.4386 868.012 97.5415C868.198 96.1063 867.747 94.953 866.843 94.0048C865.967 93.1334 864.957 92.5439 863.947 92.0057C863.097 91.5444 862.247 91.16 861.37 90.7755C860.546 90.4167 859.988 89.7504 859.749 88.7252C859.67 88.4433 859.67 88.1614 859.67 87.8795C859.67 87.6488 859.802 87.4694 859.962 87.3669C860.307 87.1106 860.653 87.1619 861.025 87.3156C861.822 87.6232 862.619 87.8795 863.442 88.0845C864.372 88.3152 865.329 88.4689 866.285 88.5458C866.817 88.5971 867.322 88.6227 867.853 88.6227C868.809 88.6227 869.739 88.4946 870.696 88.3152C871.998 88.0845 873.273 88.0333 874.575 88.0333C874.894 88.0333 874.92 88.2639 875 88.5202C874.894 88.7509 874.894 89.0072 874.894 89.2634Z" fill="white"/>
<path d="M801.642 46.1811C803.157 47.9751 804.246 50.1023 805.229 52.332C805.07 52.4345 804.99 52.332 804.884 52.2551C803.954 51.6144 803.13 50.8199 802.307 49.9998C801.111 48.8208 799.915 47.6163 798.507 46.8474C797.604 46.3605 796.674 46.0529 795.691 45.976C795.478 45.9504 795.292 45.9248 795 45.8223C795.425 45.6172 795.77 45.4378 796.142 45.3097C797.71 44.6946 799.278 44.182 800.925 43.9513C802.014 43.7976 803.13 43.6694 804.22 43.7463C806.664 43.9001 809.002 44.5152 811.26 45.6941C812.589 46.3861 813.864 47.2318 815.086 48.2057C815.219 48.3082 815.325 48.5133 815.485 48.4108C815.644 48.3082 815.565 48.0776 815.565 47.8982C815.565 47.565 815.565 47.2318 815.565 46.9243C815.591 45.0534 815.007 43.49 814.024 42.1061C813.492 41.3628 812.881 40.7477 812.217 40.1839C812.111 40.0814 811.978 40.0045 811.898 39.8251C812.031 39.6713 812.19 39.7226 812.35 39.7482C813.28 39.8507 814.183 40.0814 815.06 40.4146C816.468 40.9528 817.85 41.6448 819.178 42.4392C820.4 43.1825 821.596 43.977 822.712 44.9252C822.818 45.0278 822.924 45.1559 823.11 45.1559C823.163 44.9509 823.084 44.7458 823.031 44.5664C822.605 42.9262 821.782 41.6704 820.506 40.8759C819.364 40.1583 818.142 39.7995 816.893 39.5688C815.511 39.3125 814.13 39.0819 812.748 38.9281C811.393 38.7487 810.012 38.7743 808.657 38.8256C808.125 38.8512 807.567 38.9794 807.036 39.0562C806.903 39.0819 806.717 39.1844 806.637 39.0306C806.531 38.8512 806.637 38.6718 806.717 38.518C806.876 38.1592 807.116 37.9029 807.434 37.7748C807.647 37.6723 807.886 37.5954 808.099 37.5185C809.746 37.0828 811.42 36.724 813.094 36.4677C814.316 36.2883 815.511 36.1602 816.734 36.0833C818.514 35.9551 820.267 36.0064 822.021 36.032C822.791 36.0577 823.509 36.3908 824.226 36.7753C825.316 37.3904 826.272 38.1849 827.282 38.9537C828.158 39.6201 829.062 40.2352 830.045 40.6452C831.453 41.2347 832.888 41.3628 834.349 40.9528C835.12 40.7477 835.863 40.5683 836.661 40.6196C837.484 40.6709 838.281 40.9271 838.972 41.4653C839.105 41.5679 839.211 41.696 839.344 41.7985C839.45 41.901 839.477 42.0548 839.424 42.2086C839.344 42.4392 839.238 42.6186 839.078 42.7724C838.866 42.9518 838.68 43.1056 838.467 43.285C838.281 43.4388 838.095 43.6438 837.989 43.8745C837.856 44.1307 837.883 44.182 838.095 44.2845C838.494 44.4639 838.866 44.6433 839.238 44.874C840.274 45.5147 841.204 46.3092 842.107 47.2062C843.17 48.257 844.18 49.3847 845.269 50.4098C846.996 52.0501 848.936 53.1265 851.114 53.5365C852.124 53.7159 853.134 53.8441 854.143 53.921C854.94 53.9979 855.764 53.9722 856.561 53.9979C856.773 53.9979 857.013 54.0491 857.225 54.1004C858.155 54.331 858.288 55.4587 858.022 56.125C857.889 56.4838 857.677 56.7914 857.438 57.0477C856.827 57.6371 856.189 58.0985 855.525 58.5598C855.232 58.7648 854.914 58.9698 854.595 59.1749C854.17 59.4568 854.143 59.508 854.409 59.995C854.807 60.7126 855.126 61.4302 855.445 62.1991C856.083 63.7112 856.534 65.3258 856.774 66.9917C856.959 68.1962 856.933 69.4008 856.481 70.5284C856.322 70.8873 856.162 71.2461 856.056 71.6305C855.844 72.425 856.003 73.117 856.481 73.7064C857.013 74.3728 857.65 74.7572 858.341 75.1416C860.121 76.1412 861.901 77.2176 863.628 78.3196C865.223 79.3448 866.79 80.4212 868.358 81.5232C870.218 82.8303 872.024 84.1886 873.831 85.5726C873.884 85.6238 873.937 85.6495 873.99 85.7007C874.15 85.8032 874.176 85.957 874.07 86.1364C873.751 86.7515 873.3 87.1616 872.688 87.1872C872.237 87.2128 871.785 87.0847 871.333 86.9565C869.952 86.5721 868.65 85.9057 867.401 85.0856C865.488 83.8042 863.628 82.4202 861.769 81.0619C859.138 79.1397 856.508 77.2176 853.851 75.321C853.134 74.8085 852.39 74.2959 851.672 73.7577C851.513 73.6295 851.353 73.5014 851.194 73.3476C850.556 72.7325 850.397 72.0149 850.716 71.0923C850.902 70.5028 851.141 69.939 851.247 69.3239C851.486 68.1706 851.221 67.1967 850.45 66.4278C849.892 65.8384 849.228 65.4796 848.537 65.172C846.89 64.4544 845.163 64.0444 843.436 63.7112C841.47 63.3267 839.477 63.0192 837.537 62.4041C836.315 62.0197 835.093 61.5584 833.924 60.9433C833.632 60.7895 833.366 60.6357 833.1 60.4051C832.914 60.2513 832.755 60.0719 832.649 59.8412C832.542 59.6362 832.542 59.4055 832.595 59.1749C832.808 58.4829 833.393 58.0728 834.004 58.201C834.402 58.2779 834.774 58.4829 835.146 58.6879C836.9 59.6874 838.706 59.995 840.619 59.6362C840.938 59.5849 841.23 59.4312 841.496 59.2518C841.656 59.1492 841.682 58.9955 841.576 58.8417C841.39 58.5342 841.177 58.3291 840.859 58.2266C840.487 58.0985 840.115 58.0472 839.743 57.9959C838.042 57.7653 836.581 56.9452 835.359 55.51C834.88 54.9461 834.455 54.331 834.083 53.6647C833.951 53.434 833.844 53.1777 833.791 52.8958C833.711 52.5114 833.765 52.2551 834.083 52.0757C834.455 51.845 834.88 51.7938 835.306 51.7938C835.704 51.7681 836.103 51.7938 836.501 51.7681C837.033 51.7425 837.564 51.6144 838.042 51.3324C838.786 50.9224 839.238 50.1792 839.477 49.2821C839.716 48.3595 839.477 47.7444 838.733 47.3344C838.228 47.0524 837.67 46.873 837.112 46.7961C836.209 46.668 835.306 46.5911 834.402 46.4886C834.136 46.463 834.11 46.463 834.083 46.7961C833.977 47.9751 833.472 48.8208 832.622 49.4359C832.144 49.7691 831.666 50.051 831.134 50.256C830.603 50.4611 830.204 50.8455 829.912 51.435C829.646 51.9732 829.46 52.5626 829.115 53.0496C828.956 53.2546 828.796 53.4084 828.61 53.5622C828.451 53.7159 828.291 53.7159 828.132 53.5109C827.574 52.8958 826.989 52.2807 826.405 51.6913C825.369 50.5892 824.306 49.5641 823.217 48.5389C821.915 47.3344 820.56 46.2323 819.178 45.1815C819.098 45.1303 819.019 45.079 818.939 45.0278C818.912 45.0278 818.886 45.0278 818.833 45.0534C818.912 45.4891 819.045 45.8735 819.125 46.3092C819.364 47.4881 819.258 48.6158 818.939 49.7178C818.647 50.7686 818.275 51.7938 817.796 52.742C817.61 53.1265 817.61 53.1265 817.318 52.8446C816.521 52.1013 815.697 51.4093 814.847 50.7942C813.598 49.8972 812.297 49.1796 810.942 48.5645C809.161 47.7444 807.328 47.1806 805.442 46.7961C804.193 46.5142 802.918 46.3348 801.669 46.2323C801.695 46.1298 801.695 46.1298 801.642 46.1811ZM827.707 49.7691C827.733 49.2565 827.6 48.8208 827.547 48.3595C827.468 47.5906 827.361 46.8218 827.149 46.0785C826.91 45.284 826.538 44.5921 825.98 44.0539C825.741 43.8232 825.714 43.8488 825.501 44.1307C825.315 44.387 825.236 44.6946 825.13 45.0021C824.917 45.6685 824.598 46.1811 824.067 46.4886C824.04 46.5142 824.014 46.5399 823.987 46.5655C824.014 46.6936 824.12 46.6936 824.173 46.7193C824.89 46.9755 825.448 47.4625 825.9 48.1545C826.139 48.4877 826.378 48.7952 826.644 49.1027C826.963 49.4103 827.282 49.6666 827.707 49.7691Z" fill="white"/>
<path d="M838.52 72.3738C838.52 72.2457 838.441 72.2201 838.388 72.1688C837.697 71.605 837.006 70.9899 836.342 70.3748C836.209 70.2466 836.103 70.1185 836.023 69.9647C835.784 69.5034 835.863 69.1446 836.289 68.9652C836.607 68.8371 836.953 68.8114 837.298 68.8371C838.122 68.8883 838.946 68.9908 839.769 69.2727C841.709 69.9135 843.515 70.8874 845.11 72.3738C845.588 72.8352 846.013 73.3734 846.358 73.9628C846.518 74.2447 846.624 74.5267 846.571 74.8855C846.518 75.2186 846.411 75.3468 846.119 75.3724C845.8 75.4237 845.508 75.3212 845.216 75.1674C844.924 74.988 844.631 74.8342 844.312 74.7573C844.233 74.7317 844.153 74.7061 844.1 74.8086C844.047 74.9111 844.127 74.988 844.18 75.0392C844.738 75.7825 845.375 76.3976 846.066 76.9358C846.969 77.6277 847.926 78.2172 848.829 78.8579C849.653 79.4474 850.423 80.0881 851.114 80.8826C851.353 81.1645 851.566 81.4721 851.778 81.8052C851.805 81.8565 851.858 81.9334 851.832 82.0103C851.778 82.1128 851.699 82.1128 851.619 82.0872C851.141 82.0103 850.636 81.9334 850.158 81.754C849.361 81.4464 848.617 81.062 847.873 80.5751C846.81 79.8831 845.721 79.2167 844.552 78.7554C843.569 78.371 842.559 78.1403 841.523 78.1916C840.327 78.2428 839.131 78.1147 837.962 77.7046C837.059 77.3971 836.182 76.9614 835.306 76.5001C834.694 76.1925 834.057 75.8594 833.446 75.5518C833.18 75.4237 833.18 75.3468 833.339 75.0649C834.083 73.9116 835.066 73.2452 836.235 72.912C836.953 72.707 837.67 72.5532 838.388 72.4251C838.441 72.4507 838.494 72.4507 838.52 72.3738Z" fill="white"/>
<path d="M1100.89 363.263C1100.5 363.981 1100.1 364.673 1099.78 365.468C1099.41 366.416 1099.17 367.39 1098.95 368.389C1098.66 369.824 1098.48 371.311 1098.24 372.746C1098 374.104 1097.68 375.437 1097.12 376.693C1096.48 378.128 1096.06 379.666 1095.71 381.255C1095.42 382.562 1095.18 383.895 1094.86 385.202C1094.44 386.893 1093.88 388.482 1093.03 389.943C1092.02 391.686 1090.74 392.993 1089.04 393.659C1088.25 393.967 1087.4 394.172 1086.55 394.172C1082.43 394.172 1078.31 394.172 1074.19 394.172C1073.77 394.172 1073.61 393.967 1073.66 393.403C1073.69 392.993 1073.77 392.608 1073.9 392.224C1074.06 391.788 1074.19 391.353 1074.3 390.917C1074.46 390.327 1074.83 390.02 1075.33 389.892C1075.71 389.789 1076.08 389.738 1076.45 389.841C1076.61 389.892 1076.8 389.866 1076.95 389.866C1077.94 389.866 1078.89 389.892 1079.88 389.866C1081.18 389.841 1082.48 389.969 1083.78 389.969C1085.14 389.994 1086.39 389.661 1087.58 388.944C1088.59 388.354 1089.5 387.56 1090.13 386.406C1090.53 385.689 1090.77 384.92 1090.82 384.048C1090.85 383.382 1090.9 382.741 1090.9 382.075C1090.9 381.844 1090.88 381.639 1090.85 381.434C1090.72 380.614 1090.43 380.255 1089.73 380.102C1089.26 379.973 1088.78 380.025 1088.3 380.076C1086.73 380.23 1085.19 380.537 1083.62 380.87C1080.97 381.434 1078.36 382.152 1075.76 383.075C1074.8 383.408 1073.9 383.946 1072.97 384.407C1072.49 384.638 1072.01 384.843 1071.56 385.048C1071.3 385.176 1071 385.202 1070.71 385.125C1070.37 385.022 1070.29 384.945 1070.31 384.535C1070.34 383.69 1070.58 382.946 1071.06 382.331C1071.56 381.665 1072.2 381.332 1072.89 381.024C1073.05 380.947 1073.24 380.896 1073.39 380.819C1073.37 380.64 1073.24 380.614 1073.13 380.563C1072.84 380.383 1072.54 380.153 1072.31 379.871C1071.75 379.281 1071.61 378.538 1071.75 377.692C1071.85 376.949 1072.12 376.257 1072.36 375.565C1072.73 374.412 1073.02 373.233 1073.24 372.028C1073.31 371.567 1073.34 371.08 1073.39 370.593C1073.5 369.414 1074.06 368.569 1074.8 367.902C1075.81 366.98 1076.98 366.57 1078.2 366.339C1079.03 366.185 1079.85 366.006 1080.67 365.903C1081.1 365.852 1081.52 365.852 1081.95 365.878C1082.22 365.878 1082.27 366.031 1082.14 366.288C1081.9 366.672 1081.55 366.903 1081.18 367.082C1080.81 367.262 1080.41 367.39 1080.04 367.569C1079.4 367.877 1078.76 368.235 1078.18 368.671C1077.06 369.517 1076.37 370.67 1076.21 372.285C1076.1 373.233 1075.79 374.079 1075.44 374.925C1075.2 375.54 1074.96 376.129 1074.78 376.77C1074.48 377.821 1074.83 378.589 1075.73 378.871C1076.37 379.051 1077.03 379 1077.67 378.948C1077.81 378.948 1077.94 378.897 1078.07 378.897C1079.11 378.923 1080.12 378.82 1081.15 378.769C1082.51 378.718 1083.84 378.589 1085.19 378.513C1085.8 378.487 1086.44 378.461 1087.05 378.436C1088.83 378.282 1090.19 377.282 1091.12 375.463C1091.36 375.001 1091.54 374.54 1091.75 374.079C1091.81 373.976 1091.83 373.899 1091.91 373.797C1092.23 373.361 1092.63 373.464 1092.79 374.002C1092.84 374.13 1092.82 374.361 1092.98 374.386C1093.14 374.412 1093.22 374.207 1093.27 374.053C1093.61 373.259 1093.91 372.439 1094.01 371.542C1094.2 370.106 1093.75 368.953 1092.84 368.005C1091.97 367.133 1090.96 366.544 1089.95 366.006C1089.1 365.544 1088.25 365.16 1087.37 364.776C1086.55 364.417 1085.99 363.75 1085.75 362.725C1085.67 362.443 1085.67 362.161 1085.67 361.879C1085.67 361.649 1085.8 361.469 1085.96 361.367C1086.31 361.111 1086.65 361.162 1087.02 361.316C1087.82 361.623 1088.62 361.879 1089.44 362.085C1090.37 362.315 1091.33 362.469 1092.29 362.546C1092.82 362.597 1093.32 362.623 1093.85 362.623C1094.81 362.623 1095.74 362.495 1096.7 362.315C1098 362.085 1099.27 362.033 1100.57 362.033C1100.89 362.033 1100.92 362.264 1101 362.52C1100.89 362.751 1100.89 363.007 1100.89 363.263Z" fill="white"/>
<path d="M1027.64 320.181C1029.16 321.975 1030.25 324.102 1031.23 326.332C1031.07 326.434 1030.99 326.332 1030.88 326.255C1029.95 325.614 1029.13 324.82 1028.31 324C1027.11 322.821 1025.92 321.616 1024.51 320.847C1023.6 320.36 1022.67 320.053 1021.69 319.976C1021.48 319.95 1021.29 319.925 1021 319.822C1021.43 319.617 1021.77 319.438 1022.14 319.31C1023.71 318.695 1025.28 318.182 1026.92 317.951C1028.01 317.798 1029.13 317.669 1030.22 317.746C1032.66 317.9 1035 318.515 1037.26 319.694C1038.59 320.386 1039.86 321.232 1041.09 322.206C1041.22 322.308 1041.33 322.513 1041.48 322.411C1041.64 322.308 1041.56 322.078 1041.56 321.898C1041.56 321.565 1041.56 321.232 1041.56 320.924C1041.59 319.053 1041.01 317.49 1040.02 316.106C1039.49 315.363 1038.88 314.748 1038.22 314.184C1038.11 314.081 1037.98 314.005 1037.9 313.825C1038.03 313.671 1038.19 313.723 1038.35 313.748C1039.28 313.851 1040.18 314.081 1041.06 314.415C1042.47 314.953 1043.85 315.645 1045.18 316.439C1046.4 317.182 1047.6 317.977 1048.71 318.925C1048.82 319.028 1048.92 319.156 1049.11 319.156C1049.16 318.951 1049.08 318.746 1049.03 318.566C1048.61 316.926 1047.78 315.67 1046.51 314.876C1045.36 314.158 1044.14 313.799 1042.89 313.569C1041.51 313.313 1040.13 313.082 1038.75 312.928C1037.39 312.749 1036.01 312.774 1034.66 312.826C1034.13 312.851 1033.57 312.979 1033.04 313.056C1032.9 313.082 1032.72 313.184 1032.64 313.031C1032.53 312.851 1032.64 312.672 1032.72 312.518C1032.88 312.159 1033.12 311.903 1033.43 311.775C1033.65 311.672 1033.89 311.595 1034.1 311.519C1035.75 311.083 1037.42 310.724 1039.09 310.468C1040.32 310.288 1041.51 310.16 1042.73 310.083C1044.51 309.955 1046.27 310.006 1048.02 310.032C1048.79 310.058 1049.51 310.391 1050.23 310.775C1051.32 311.39 1052.27 312.185 1053.28 312.954C1054.16 313.62 1055.06 314.235 1056.04 314.645C1057.45 315.235 1058.89 315.363 1060.35 314.953C1061.12 314.748 1061.86 314.568 1062.66 314.62C1063.48 314.671 1064.28 314.927 1064.97 315.465C1065.1 315.568 1065.21 315.696 1065.34 315.799C1065.45 315.901 1065.48 316.055 1065.42 316.209C1065.34 316.439 1065.24 316.619 1065.08 316.772C1064.87 316.952 1064.68 317.106 1064.47 317.285C1064.28 317.439 1064.1 317.644 1063.99 317.874C1063.86 318.131 1063.88 318.182 1064.1 318.285C1064.49 318.464 1064.87 318.643 1065.24 318.874C1066.27 319.515 1067.2 320.309 1068.11 321.206C1069.17 322.257 1070.18 323.385 1071.27 324.41C1073 326.05 1074.94 327.126 1077.11 327.537C1078.12 327.716 1079.13 327.844 1080.14 327.921C1080.94 327.998 1081.76 327.972 1082.56 327.998C1082.77 327.998 1083.01 328.049 1083.23 328.1C1084.16 328.331 1084.29 329.459 1084.02 330.125C1083.89 330.484 1083.68 330.791 1083.44 331.048C1082.83 331.637 1082.19 332.098 1081.52 332.56C1081.23 332.765 1080.91 332.97 1080.59 333.175C1080.17 333.457 1080.14 333.508 1080.41 333.995C1080.81 334.713 1081.13 335.43 1081.45 336.199C1082.08 337.711 1082.53 339.326 1082.77 340.992C1082.96 342.196 1082.93 343.401 1082.48 344.528C1082.32 344.887 1082.16 345.246 1082.06 345.63C1081.84 346.425 1082 347.117 1082.48 347.706C1083.01 348.373 1083.65 348.757 1084.34 349.142C1086.12 350.141 1087.9 351.218 1089.63 352.32C1091.22 353.345 1092.79 354.421 1094.36 355.523C1096.22 356.83 1098.02 358.189 1099.83 359.573C1099.88 359.624 1099.94 359.649 1099.99 359.701C1100.15 359.803 1100.18 359.957 1100.07 360.136C1099.75 360.752 1099.3 361.162 1098.69 361.187C1098.24 361.213 1097.79 361.085 1097.33 360.957C1095.95 360.572 1094.65 359.906 1093.4 359.086C1091.49 357.804 1089.63 356.42 1087.77 355.062C1085.14 353.14 1082.51 351.218 1079.85 349.321C1079.13 348.808 1078.39 348.296 1077.67 347.758C1077.51 347.63 1077.35 347.501 1077.19 347.348C1076.56 346.733 1076.4 346.015 1076.72 345.092C1076.9 344.503 1077.14 343.939 1077.25 343.324C1077.49 342.171 1077.22 341.197 1076.45 340.428C1075.89 339.838 1075.23 339.48 1074.54 339.172C1072.89 338.454 1071.16 338.044 1069.44 337.711C1067.47 337.327 1065.48 337.019 1063.54 336.404C1062.32 336.02 1061.09 335.558 1059.92 334.943C1059.63 334.789 1059.37 334.636 1059.1 334.405C1058.91 334.251 1058.75 334.072 1058.65 333.841C1058.54 333.636 1058.54 333.406 1058.6 333.175C1058.81 332.483 1059.39 332.073 1060 332.201C1060.4 332.278 1060.77 332.483 1061.15 332.688C1062.9 333.687 1064.71 333.995 1066.62 333.636C1066.94 333.585 1067.23 333.431 1067.5 333.252C1067.66 333.149 1067.68 332.995 1067.58 332.842C1067.39 332.534 1067.18 332.329 1066.86 332.227C1066.49 332.098 1066.11 332.047 1065.74 331.996C1064.04 331.765 1062.58 330.945 1061.36 329.51C1060.88 328.946 1060.46 328.331 1060.08 327.665C1059.95 327.434 1059.84 327.178 1059.79 326.896C1059.71 326.511 1059.76 326.255 1060.08 326.076C1060.46 325.845 1060.88 325.794 1061.31 325.794C1061.7 325.768 1062.1 325.794 1062.5 325.768C1063.03 325.743 1063.56 325.614 1064.04 325.332C1064.79 324.922 1065.24 324.179 1065.48 323.282C1065.72 322.36 1065.48 321.744 1064.73 321.334C1064.23 321.052 1063.67 320.873 1063.11 320.796C1062.21 320.668 1061.31 320.591 1060.4 320.489C1060.14 320.463 1060.11 320.463 1060.08 320.796C1059.98 321.975 1059.47 322.821 1058.62 323.436C1058.14 323.769 1057.67 324.051 1057.13 324.256C1056.6 324.461 1056.2 324.846 1055.91 325.435C1055.65 325.973 1055.46 326.563 1055.11 327.05C1054.96 327.255 1054.8 327.408 1054.61 327.562C1054.45 327.716 1054.29 327.716 1054.13 327.511C1053.57 326.896 1052.99 326.281 1052.4 325.691C1051.37 324.589 1050.31 323.564 1049.22 322.539C1047.91 321.334 1046.56 320.232 1045.18 319.182C1045.1 319.13 1045.02 319.079 1044.94 319.028C1044.91 319.028 1044.89 319.028 1044.83 319.053C1044.91 319.489 1045.05 319.874 1045.12 320.309C1045.36 321.488 1045.26 322.616 1044.94 323.718C1044.65 324.769 1044.27 325.794 1043.8 326.742C1043.61 327.126 1043.61 327.126 1043.32 326.845C1042.52 326.101 1041.7 325.409 1040.85 324.794C1039.6 323.897 1038.3 323.18 1036.94 322.565C1035.16 321.744 1033.33 321.181 1031.44 320.796C1030.19 320.514 1028.92 320.335 1027.67 320.232C1027.7 320.13 1027.7 320.13 1027.64 320.181ZM1053.71 323.769C1053.73 323.257 1053.6 322.821 1053.55 322.36C1053.47 321.591 1053.36 320.822 1053.15 320.079C1052.91 319.284 1052.54 318.592 1051.98 318.054C1051.74 317.823 1051.71 317.849 1051.5 318.131C1051.32 318.387 1051.24 318.695 1051.13 319.002C1050.92 319.668 1050.6 320.181 1050.07 320.489C1050.04 320.514 1050.01 320.54 1049.99 320.565C1050.01 320.694 1050.12 320.694 1050.17 320.719C1050.89 320.976 1051.45 321.462 1051.9 322.154C1052.14 322.488 1052.38 322.795 1052.64 323.103C1052.96 323.41 1053.28 323.667 1053.71 323.769Z" fill="white"/>
<path d="M1064.52 346.374C1064.52 346.246 1064.44 346.22 1064.39 346.169C1063.7 345.605 1063.01 344.99 1062.34 344.375C1062.21 344.247 1062.1 344.118 1062.02 343.965C1061.78 343.503 1061.86 343.145 1062.29 342.965C1062.61 342.837 1062.95 342.811 1063.3 342.837C1064.12 342.888 1064.95 342.991 1065.77 343.273C1067.71 343.913 1069.52 344.887 1071.11 346.374C1071.59 346.835 1072.01 347.373 1072.36 347.963C1072.52 348.245 1072.62 348.527 1072.57 348.885C1072.52 349.219 1072.41 349.347 1072.12 349.372C1071.8 349.424 1071.51 349.321 1071.22 349.167C1070.92 348.988 1070.63 348.834 1070.31 348.757C1070.23 348.732 1070.15 348.706 1070.1 348.809C1070.05 348.911 1070.13 348.988 1070.18 349.039C1070.74 349.782 1071.38 350.398 1072.07 350.936C1072.97 351.628 1073.93 352.217 1074.83 352.858C1075.65 353.447 1076.42 354.088 1077.11 354.883C1077.35 355.165 1077.57 355.472 1077.78 355.805C1077.81 355.857 1077.86 355.933 1077.83 356.01C1077.78 356.113 1077.7 356.113 1077.62 356.087C1077.14 356.01 1076.64 355.933 1076.16 355.754C1075.36 355.446 1074.62 355.062 1073.87 354.575C1072.81 353.883 1071.72 353.217 1070.55 352.755C1069.57 352.371 1068.56 352.14 1067.52 352.192C1066.33 352.243 1065.13 352.115 1063.96 351.705C1063.06 351.397 1062.18 350.961 1061.31 350.5C1060.69 350.193 1060.06 349.859 1059.45 349.552C1059.18 349.424 1059.18 349.347 1059.34 349.065C1060.08 347.912 1061.07 347.245 1062.24 346.912C1062.95 346.707 1063.67 346.553 1064.39 346.425C1064.44 346.451 1064.49 346.451 1064.52 346.374Z" fill="white"/>
<path d="M928.894 425.263C928.495 425.981 928.097 426.673 927.778 427.468C927.406 428.416 927.167 429.39 926.954 430.389C926.662 431.824 926.476 433.311 926.237 434.746C925.998 436.104 925.679 437.437 925.121 438.693C924.483 440.128 924.058 441.666 923.713 443.255C923.421 444.562 923.181 445.895 922.863 447.202C922.437 448.893 921.879 450.482 921.029 451.943C920.02 453.686 918.744 454.993 917.044 455.659C916.247 455.967 915.397 456.172 914.546 456.172C910.428 456.172 906.31 456.172 902.192 456.172C901.767 456.172 901.607 455.967 901.66 455.403C901.687 454.993 901.767 454.608 901.899 454.224C902.059 453.788 902.192 453.353 902.298 452.917C902.457 452.327 902.829 452.02 903.334 451.892C903.706 451.789 904.078 451.738 904.45 451.841C904.609 451.892 904.795 451.866 904.955 451.866C905.938 451.866 906.894 451.892 907.877 451.866C909.179 451.841 910.481 451.969 911.783 451.969C913.138 451.994 914.387 451.661 915.583 450.944C916.592 450.354 917.496 449.56 918.133 448.406C918.532 447.689 918.771 446.92 918.824 446.048C918.851 445.382 918.904 444.741 918.904 444.075C918.904 443.844 918.877 443.639 918.851 443.434C918.718 442.614 918.425 442.255 917.735 442.102C917.256 441.973 916.778 442.025 916.3 442.076C914.732 442.23 913.191 442.537 911.624 442.87C908.967 443.434 906.363 444.152 903.759 445.075C902.803 445.408 901.899 445.946 900.969 446.407C900.491 446.638 900.013 446.843 899.561 447.048C899.296 447.176 899.003 447.202 898.711 447.125C898.366 447.022 898.286 446.945 898.313 446.535C898.339 445.69 898.578 444.946 899.057 444.331C899.561 443.665 900.199 443.332 900.89 443.024C901.049 442.947 901.235 442.896 901.395 442.819C901.368 442.64 901.235 442.614 901.129 442.563C900.837 442.383 900.544 442.153 900.305 441.871C899.747 441.281 899.614 440.538 899.747 439.692C899.854 438.949 900.119 438.257 900.358 437.565C900.73 436.412 901.023 435.233 901.235 434.028C901.315 433.567 901.341 433.08 901.395 432.593C901.501 431.414 902.059 430.569 902.803 429.902C903.812 428.98 904.981 428.57 906.204 428.339C907.027 428.185 907.851 428.006 908.675 427.903C909.1 427.852 909.525 427.852 909.95 427.878C910.216 427.878 910.269 428.031 910.136 428.288C909.897 428.672 909.551 428.903 909.179 429.082C908.807 429.262 908.409 429.39 908.037 429.569C907.399 429.877 906.762 430.235 906.177 430.671C905.061 431.517 904.37 432.67 904.211 434.285C904.105 435.233 903.786 436.079 903.44 436.925C903.201 437.54 902.962 438.129 902.776 438.77C902.484 439.821 902.829 440.589 903.733 440.871C904.37 441.051 905.035 441 905.672 440.948C905.805 440.948 905.938 440.897 906.071 440.897C907.107 440.923 908.117 440.82 909.153 440.769C910.508 440.718 911.836 440.589 913.191 440.513C913.802 440.487 914.44 440.461 915.051 440.436C916.831 440.282 918.186 439.282 919.116 437.463C919.355 437.001 919.541 436.54 919.754 436.079C919.807 435.976 919.834 435.899 919.913 435.797C920.232 435.361 920.631 435.464 920.79 436.002C920.843 436.13 920.817 436.361 920.976 436.386C921.136 436.412 921.215 436.207 921.268 436.053C921.614 435.259 921.906 434.439 922.012 433.542C922.198 432.106 921.747 430.953 920.843 430.005C919.967 429.133 918.957 428.544 917.947 428.006C917.097 427.544 916.247 427.16 915.37 426.776C914.546 426.417 913.988 425.75 913.749 424.725C913.67 424.443 913.67 424.161 913.67 423.879C913.67 423.649 913.802 423.469 913.962 423.367C914.307 423.111 914.653 423.162 915.025 423.316C915.822 423.623 916.619 423.879 917.442 424.085C918.372 424.315 919.329 424.469 920.285 424.546C920.817 424.597 921.322 424.623 921.853 424.623C922.809 424.623 923.739 424.495 924.696 424.315C925.998 424.085 927.273 424.033 928.575 424.033C928.894 424.033 928.92 424.264 929 424.52C928.894 424.751 928.894 425.007 928.894 425.263Z" fill="white"/>
<path d="M855.642 382.181C857.157 383.975 858.246 386.102 859.229 388.332C859.07 388.434 858.99 388.332 858.884 388.255C857.954 387.614 857.13 386.82 856.307 386C855.111 384.821 853.915 383.616 852.507 382.847C851.604 382.36 850.674 382.053 849.691 381.976C849.478 381.95 849.292 381.925 849 381.822C849.425 381.617 849.77 381.438 850.142 381.31C851.71 380.695 853.278 380.182 854.925 379.951C856.014 379.798 857.13 379.669 858.22 379.746C860.664 379.9 863.002 380.515 865.26 381.694C866.589 382.386 867.864 383.232 869.086 384.206C869.219 384.308 869.325 384.513 869.485 384.411C869.644 384.308 869.565 384.078 869.565 383.898C869.565 383.565 869.565 383.232 869.565 382.924C869.591 381.053 869.007 379.49 868.024 378.106C867.492 377.363 866.881 376.748 866.217 376.184C866.111 376.081 865.978 376.005 865.898 375.825C866.031 375.671 866.19 375.723 866.35 375.748C867.28 375.851 868.183 376.081 869.06 376.415C870.468 376.953 871.85 377.645 873.178 378.439C874.4 379.182 875.596 379.977 876.712 380.925C876.818 381.028 876.924 381.156 877.11 381.156C877.163 380.951 877.084 380.746 877.031 380.566C876.605 378.926 875.782 377.67 874.506 376.876C873.364 376.158 872.142 375.799 870.893 375.569C869.511 375.313 868.13 375.082 866.748 374.928C865.393 374.749 864.012 374.774 862.657 374.826C862.125 374.851 861.567 374.979 861.036 375.056C860.903 375.082 860.717 375.184 860.637 375.031C860.531 374.851 860.637 374.672 860.717 374.518C860.876 374.159 861.116 373.903 861.434 373.775C861.647 373.672 861.886 373.595 862.099 373.519C863.746 373.083 865.42 372.724 867.094 372.468C868.316 372.288 869.511 372.16 870.734 372.083C872.514 371.955 874.267 372.006 876.021 372.032C876.791 372.058 877.509 372.391 878.226 372.775C879.316 373.39 880.272 374.185 881.282 374.954C882.158 375.62 883.062 376.235 884.045 376.645C885.453 377.235 886.888 377.363 888.349 376.953C889.12 376.748 889.863 376.568 890.661 376.62C891.484 376.671 892.281 376.927 892.972 377.465C893.105 377.568 893.211 377.696 893.344 377.799C893.45 377.901 893.477 378.055 893.424 378.209C893.344 378.439 893.238 378.619 893.078 378.772C892.866 378.952 892.68 379.106 892.467 379.285C892.281 379.439 892.095 379.644 891.989 379.874C891.856 380.131 891.883 380.182 892.095 380.285C892.494 380.464 892.866 380.643 893.238 380.874C894.274 381.515 895.204 382.309 896.107 383.206C897.17 384.257 898.18 385.385 899.269 386.41C900.996 388.05 902.936 389.126 905.114 389.537C906.124 389.716 907.134 389.844 908.143 389.921C908.94 389.998 909.764 389.972 910.561 389.998C910.773 389.998 911.013 390.049 911.225 390.1C912.155 390.331 912.288 391.459 912.022 392.125C911.889 392.484 911.677 392.791 911.438 393.048C910.827 393.637 910.189 394.098 909.525 394.56C909.232 394.765 908.914 394.97 908.595 395.175C908.17 395.457 908.143 395.508 908.409 395.995C908.807 396.713 909.126 397.43 909.445 398.199C910.083 399.711 910.534 401.326 910.774 402.992C910.959 404.196 910.933 405.401 910.481 406.528C910.322 406.887 910.162 407.246 910.056 407.63C909.844 408.425 910.003 409.117 910.481 409.706C911.013 410.373 911.65 410.757 912.341 411.142C914.121 412.141 915.901 413.218 917.628 414.32C919.223 415.345 920.79 416.421 922.358 417.523C924.218 418.83 926.024 420.189 927.831 421.573C927.884 421.624 927.937 421.649 927.99 421.701C928.15 421.803 928.176 421.957 928.07 422.136C927.751 422.752 927.3 423.162 926.688 423.187C926.237 423.213 925.785 423.085 925.333 422.957C923.952 422.572 922.65 421.906 921.401 421.086C919.488 419.804 917.628 418.42 915.769 417.062C913.138 415.14 910.508 413.218 907.851 411.321C907.134 410.808 906.39 410.296 905.672 409.758C905.513 409.63 905.353 409.501 905.194 409.348C904.556 408.733 904.397 408.015 904.716 407.092C904.902 406.503 905.141 405.939 905.247 405.324C905.486 404.171 905.221 403.197 904.45 402.428C903.892 401.838 903.228 401.48 902.537 401.172C900.89 400.454 899.163 400.044 897.436 399.711C895.47 399.327 893.477 399.019 891.537 398.404C890.315 398.02 889.093 397.558 887.924 396.943C887.632 396.789 887.366 396.636 887.1 396.405C886.914 396.251 886.755 396.072 886.649 395.841C886.542 395.636 886.542 395.406 886.595 395.175C886.808 394.483 887.393 394.073 888.004 394.201C888.402 394.278 888.774 394.483 889.146 394.688C890.9 395.687 892.706 395.995 894.619 395.636C894.938 395.585 895.23 395.431 895.496 395.252C895.656 395.149 895.682 394.995 895.576 394.842C895.39 394.534 895.177 394.329 894.859 394.227C894.487 394.098 894.115 394.047 893.743 393.996C892.042 393.765 890.581 392.945 889.359 391.51C888.88 390.946 888.455 390.331 888.083 389.665C887.951 389.434 887.844 389.178 887.791 388.896C887.711 388.511 887.765 388.255 888.083 388.076C888.455 387.845 888.88 387.794 889.306 387.794C889.704 387.768 890.103 387.794 890.501 387.768C891.033 387.743 891.564 387.614 892.042 387.332C892.786 386.922 893.238 386.179 893.477 385.282C893.716 384.36 893.477 383.744 892.733 383.334C892.228 383.052 891.67 382.873 891.112 382.796C890.209 382.668 889.306 382.591 888.402 382.489C888.136 382.463 888.11 382.463 888.083 382.796C887.977 383.975 887.472 384.821 886.622 385.436C886.144 385.769 885.666 386.051 885.134 386.256C884.603 386.461 884.204 386.846 883.912 387.435C883.646 387.973 883.46 388.563 883.115 389.05C882.956 389.255 882.796 389.408 882.61 389.562C882.451 389.716 882.291 389.716 882.132 389.511C881.574 388.896 880.989 388.281 880.405 387.691C879.369 386.589 878.306 385.564 877.217 384.539C875.915 383.334 874.56 382.232 873.178 381.182C873.098 381.13 873.019 381.079 872.939 381.028C872.912 381.028 872.886 381.028 872.833 381.053C872.912 381.489 873.045 381.874 873.125 382.309C873.364 383.488 873.258 384.616 872.939 385.718C872.647 386.769 872.275 387.794 871.796 388.742C871.61 389.126 871.61 389.126 871.318 388.845C870.521 388.101 869.697 387.409 868.847 386.794C867.598 385.897 866.297 385.18 864.942 384.565C863.161 383.744 861.328 383.181 859.442 382.796C858.193 382.514 856.918 382.335 855.669 382.232C855.695 382.13 855.695 382.13 855.642 382.181ZM881.707 385.769C881.733 385.257 881.6 384.821 881.547 384.36C881.468 383.591 881.361 382.822 881.149 382.079C880.91 381.284 880.538 380.592 879.98 380.054C879.741 379.823 879.714 379.849 879.501 380.131C879.315 380.387 879.236 380.695 879.13 381.002C878.917 381.668 878.598 382.181 878.067 382.489C878.04 382.514 878.014 382.54 877.987 382.565C878.014 382.694 878.12 382.694 878.173 382.719C878.89 382.976 879.448 383.462 879.9 384.154C880.139 384.488 880.378 384.795 880.644 385.103C880.963 385.41 881.282 385.667 881.707 385.769Z" fill="white"/>
<path d="M892.52 408.374C892.52 408.246 892.441 408.22 892.388 408.169C891.697 407.605 891.006 406.99 890.342 406.375C890.209 406.247 890.103 406.118 890.023 405.965C889.784 405.503 889.863 405.145 890.289 404.965C890.607 404.837 890.953 404.811 891.298 404.837C892.122 404.888 892.946 404.991 893.769 405.273C895.709 405.913 897.515 406.887 899.11 408.374C899.588 408.835 900.013 409.373 900.358 409.963C900.518 410.245 900.624 410.527 900.571 410.885C900.518 411.219 900.411 411.347 900.119 411.372C899.8 411.424 899.508 411.321 899.216 411.167C898.924 410.988 898.631 410.834 898.312 410.757C898.233 410.732 898.153 410.706 898.1 410.809C898.047 410.911 898.127 410.988 898.18 411.039C898.738 411.782 899.375 412.398 900.066 412.936C900.969 413.628 901.926 414.217 902.829 414.858C903.653 415.447 904.423 416.088 905.114 416.883C905.353 417.165 905.566 417.472 905.778 417.805C905.805 417.857 905.858 417.933 905.832 418.01C905.778 418.113 905.699 418.113 905.619 418.087C905.141 418.01 904.636 417.933 904.158 417.754C903.361 417.446 902.617 417.062 901.873 416.575C900.81 415.883 899.721 415.217 898.552 414.755C897.569 414.371 896.559 414.14 895.523 414.192C894.327 414.243 893.131 414.115 891.962 413.705C891.059 413.397 890.182 412.961 889.306 412.5C888.694 412.193 888.057 411.859 887.446 411.552C887.18 411.424 887.18 411.347 887.339 411.065C888.083 409.912 889.066 409.245 890.235 408.912C890.953 408.707 891.67 408.553 892.388 408.425C892.441 408.451 892.494 408.451 892.52 408.374Z" fill="white"/>
</g>
</g>
</g>
<defs>
<linearGradient id="paint0_linear_11244_667" x1="1440" y1="258.5" x2="0" y2="258.5" gradientUnits="userSpaceOnUse">
<stop stop-color="#3592C8"/>
<stop offset="1" stop-color="#E6F1F8"/>
</linearGradient>
<clipPath id="clip0_11244_667">
<rect width="1440" height="517" fill="white"/>
</clipPath>
</defs>
</svg>
