<svg width="1440" height="550" viewBox="0 0 1440 550" fill="none" xmlns="http://www.w3.org/2000/svg">
<g opacity="0.2" clip-path="url(#clip0_11233_26015)">
<path d="M1089.93 28.0904C1090.58 26.6377 1090.11 23.5139 1090.11 21.673C1090.11 16.6819 1090.11 11.6894 1090.11 6.69865C1091.46 6.08813 1097.63 6.34543 1099.32 6.60538C1104.78 6.57443 1110.24 6.54348 1115.69 6.51254C1115.75 4.34233 1115.82 2.17169 1115.88 0.0019273C1104.22 0.0019273 1092.56 0.0019273 1080.91 0.0019273C1080.91 9.27072 1080.91 18.5422 1080.91 27.8114C1082.4 28.4913 1087.97 28.0881 1089.93 28.0904Z" fill="#026CA9" fill-opacity="0.35"/>
<path d="M1096.07 123.052C1078.27 123.021 1060.47 122.99 1042.68 122.958C1041.89 124.705 1042.47 130.631 1042.49 133.003C1060.32 133.034 1078.15 133.065 1095.97 133.096C1096.53 131.919 1096.08 125.276 1096.07 123.052Z" fill="#026CA9" fill-opacity="0.8"/>
<path d="M1091.05 69.7578C1099.23 69.7578 1107.42 69.7578 1115.6 69.7578C1116.24 68.3497 1115.8 61.6658 1115.78 59.527C1107.26 59.527 1098.73 59.527 1090.21 59.527C1090.18 52.5827 1090.15 45.6371 1090.11 38.6932C1087.08 38.6623 1084.04 38.6309 1081 38.6C1080.97 48.9231 1080.94 59.2489 1080.91 69.5717C1082.72 70.3842 1088.6 69.7578 1091.05 69.7578Z" fill="#026CA9" fill-opacity="0.8"/>
<path d="M1115.69 112.169C1115.72 108.574 1115.75 104.976 1115.78 101.38C1107.29 101.412 1098.79 101.442 1090.3 101.474C1089.63 99.9869 1090.1 92.7614 1090.11 90.4988C1091.46 89.8949 1096.58 90.058 1098.3 90.3127C1104.1 90.3127 1109.9 90.3127 1115.69 90.3127C1115.75 86.9338 1115.82 83.5536 1115.88 80.1748C1104.25 80.1748 1092.62 80.1748 1081 80.1748C1080.97 90.7455 1080.94 101.32 1080.91 111.89C1081 111.952 1081.09 112.014 1081.19 112.077C1092.69 112.108 1104.19 112.138 1115.69 112.169Z" fill="#026CA9" fill-opacity="0.1"/>
<path d="M1032.36 125.284C1032.39 110.249 1032.42 95.2093 1032.45 80.1748C1029.35 80.1748 1026.25 80.1748 1023.15 80.1748C1023.15 104.975 1023.15 129.781 1023.15 154.581C1047.45 154.581 1071.76 154.581 1096.07 154.581C1096.1 151.047 1096.13 147.512 1096.16 143.978C1094.9 143.412 1092.21 143.792 1090.58 143.792C1086.3 143.792 1082.02 143.792 1077.74 143.792C1062.71 143.792 1047.67 143.792 1032.64 143.792C1032.04 142.459 1032.36 139.691 1032.36 138.025C1032.36 133.779 1032.36 129.531 1032.36 125.284Z" fill="#026CA9" fill-opacity="0.5"/>
<path d="M1167.96 143.792C1160.65 143.792 1153.33 143.792 1146.01 143.792C1145.98 147.357 1145.95 150.923 1145.92 154.488C1153.02 154.519 1160.12 154.55 1167.22 154.581C1167.66 155.573 1167.4 157.628 1167.4 158.952C1167.4 163.075 1167.4 167.2 1167.4 171.322C1167.44 172.593 1167.47 173.864 1167.5 175.135C1168.09 175.661 1175.52 175.343 1176.98 175.322C1177.02 164.875 1177.05 154.425 1177.08 143.978C1175.42 143.238 1170.19 143.792 1167.96 143.792Z" fill="#026CA9" fill-opacity="0.5"/>
<path d="M1243.67 132.817C1244.66 133.55 1251.21 133.121 1253.06 133.096C1253.13 115.551 1253.19 97.9992 1253.25 80.4537C1252.58 79.8175 1245.39 80.1504 1243.76 80.1747C1243.73 97.7203 1243.7 115.272 1243.67 132.817Z" fill="#026CA9" fill-opacity="0.8"/>
<path d="M1253.16 38.6C1250.03 38.6 1246.89 38.6 1243.76 38.6C1243.76 48.9537 1243.76 59.3109 1243.76 69.665C1246.86 69.6955 1249.96 69.7269 1253.06 69.7578C1253.1 59.3728 1253.13 48.985 1253.16 38.6Z" fill="#026CA9" fill-opacity="0.8"/>
<path d="M1196.05 49.0168C1196.11 32.68 1196.17 16.3382 1196.24 0.00180576C1193.2 0.00180576 1190.16 0.00180576 1187.12 0.00180576C1187.15 16.3077 1187.18 32.6181 1187.21 48.924C1190.16 48.9549 1193.11 48.9859 1196.05 49.0168Z" fill="#026CA9" fill-opacity="0.35"/>
<path d="M1263.2 122.958C1262.42 124.69 1262.99 130.557 1263.02 132.911C1263.08 132.972 1263.14 133.034 1263.2 133.096C1272.63 133.096 1282.05 133.096 1291.48 133.096C1291.51 129.748 1291.54 126.399 1291.57 123.052C1282.11 123.021 1272.66 122.99 1263.2 122.958Z" fill="#026CA9" fill-opacity="0.5"/>
<path d="M1145.83 27.8113C1147.28 28.4638 1150.4 27.9974 1152.24 27.9974C1157.23 27.9974 1162.23 27.9974 1167.22 27.9974C1167.97 29.6721 1167.4 37.6588 1167.4 40.1814C1167.4 49.9771 1167.4 59.7759 1167.4 69.5717C1168.95 70.2667 1173.77 69.7578 1175.87 69.7578C1182.63 69.7578 1189.39 69.7578 1196.14 69.7578C1196.17 66.348 1196.21 62.9369 1196.24 59.5271C1189.88 59.5271 1183.53 59.5271 1177.17 59.5271C1177.14 39.6871 1177.11 19.8414 1177.08 0.00185318C1173.88 0.00185318 1170.69 0.00185318 1167.5 0.00185318C1167.5 5.7366 1167.5 11.4736 1167.5 17.2083C1166.04 17.8608 1162.92 17.3944 1161.08 17.3944C1156.03 17.3944 1150.97 17.3944 1145.92 17.3944C1145.89 20.8661 1145.86 24.3392 1145.83 27.8113Z" fill="#026CA9" fill-opacity="0.5"/>
<path d="M1156.71 6.51245C1156.74 4.34225 1156.77 2.1716 1156.8 0.00184084C1146.63 0.00184084 1136.46 0.00184084 1126.29 0.00184084C1126.29 2.14066 1126.29 4.28036 1126.29 6.41918C1129.61 6.45012 1132.93 6.48151 1136.25 6.51245C1143.07 6.51245 1149.89 6.51245 1156.71 6.51245Z" fill="#026CA9" fill-opacity="0.35"/>
<path d="M974.413 39.6229C974.413 32.2454 974.413 24.8652 974.413 17.4872C962.943 17.4563 951.47 17.4253 940 17.3944C940 20.8975 940 24.401 940 27.9041C948.246 27.9041 956.494 27.9041 964.74 27.9041C965.692 28.7304 965.14 36.4156 965.112 38.4143C963.426 39.1707 959.773 38.6004 957.672 38.6C951.782 38.6 945.89 38.6 940 38.6C940 42.0721 940 45.5451 940 49.0168C951.408 49.0168 962.819 49.0168 974.227 49.0168C974.987 47.3201 974.413 41.9112 974.413 39.6229Z" fill="#026CA9" fill-opacity="0.5"/>
<path d="M940.558 0.00184084C940.372 0.00184084 940.186 0.00184084 940 0.00184084C940 2.1716 940 4.34225 940 6.51245C940.155 6.51245 940.31 6.51245 940.465 6.51245C940.496 4.34225 940.527 2.1716 940.558 0.00184084Z" fill="#026CA9" fill-opacity="0.35"/>
<path d="M974.413 90.4986C975.932 89.7767 981.142 90.3121 983.249 90.3125C990.038 90.3125 996.828 90.3125 1003.62 90.3125C1004.35 91.958 1003.8 95.5115 1003.8 97.5667C1003.8 103.302 1003.8 109.038 1003.8 114.774C1003.8 134.923 1003.8 155.079 1003.8 175.229C1005.2 175.865 1010.99 175.415 1013.38 175.415C1020.89 175.415 1028.39 175.415 1035.89 175.415C1062.49 175.415 1089.09 175.415 1115.69 175.415C1115.75 157.962 1115.82 140.504 1115.88 123.051C1112.78 123.02 1109.68 122.989 1106.58 122.958C1106.55 137.063 1106.52 151.172 1106.48 165.277C1106.39 165.339 1106.3 165.401 1106.21 165.463C1075.36 165.525 1044.51 165.587 1013.66 165.649C1012.66 165.1 1013.1 162.018 1013.1 160.534C1013.1 155.387 1013.1 150.24 1013.1 145.094C1013.1 123.488 1013.1 101.874 1013.1 80.2679C1008.62 78.985 1003.08 81.0137 998.223 80.1746C982.599 80.1746 966.971 80.1746 951.347 80.1746C951.074 80.7692 950.967 89.2918 951.254 90.0331C951.667 90.4575 953.757 90.2193 954.788 90.2193C958.136 90.2193 961.485 90.2193 964.833 90.2193C964.895 90.3125 964.957 90.4054 965.019 90.4986C965.05 94.0941 965.081 97.6914 965.112 101.287C963.556 101.988 960.187 101.473 958.23 101.473C952.184 101.473 946.138 101.473 940.093 101.473C940.062 101.473 940.031 101.473 940 101.473C940 105.007 940 108.542 940 112.076C951.439 112.076 962.881 112.076 974.32 112.076C974.351 104.885 974.382 97.6905 974.413 90.4986Z" fill="#026CA9" fill-opacity="0.35"/>
<path d="M1042.59 80.1747C1042.56 90.7764 1042.53 101.382 1042.49 111.983C1043.52 112.446 1049.68 112.188 1051.52 112.169C1052.28 110.473 1051.7 105.063 1051.7 102.775C1051.7 95.2737 1051.7 87.7693 1051.7 80.268C1048.66 80.2366 1045.63 80.2056 1042.59 80.1747Z" fill="#026CA9" fill-opacity="0.8"/>
<path d="M974.413 0.00184084C966.694 0.00184084 958.973 0.00184084 951.254 0.00184084C951.254 2.14066 951.254 4.28036 951.254 6.41918C958.942 6.45012 966.632 6.48151 974.32 6.51245C974.351 4.34225 974.382 2.1716 974.413 0.00184084Z" fill="#026CA9" fill-opacity="0.35"/>
<path d="M940.558 82.593C940.589 75.0289 940.62 67.4631 940.651 59.899C940.43 59.5749 940.522 59.5868 940 59.5272C940 69.7875 940 80.0519 940 90.3127C940.124 90.3127 940.248 90.3127 940.372 90.3127C941.155 88.5594 940.558 84.7681 940.558 82.593Z" fill="#026CA9" fill-opacity="0.1"/>
<path d="M1051.52 48.9242C1052.25 48.086 1051.8 38.5546 1051.8 36.5541C1051.76 24.3711 1051.73 12.1846 1051.7 0.00197025C1048.63 0.00197025 1045.56 0.00197025 1042.49 0.00197025C1042.46 16.2765 1042.43 32.5563 1042.4 48.8313C1043.21 49.2049 1050.55 49.3163 1051.52 48.9242Z" fill="#026CA9" fill-opacity="0.35"/>
<path d="M1061.75 80.1748C1061.75 90.7764 1061.75 101.382 1061.75 111.983C1064.75 112.045 1067.76 112.108 1070.77 112.169C1070.8 101.506 1070.83 90.8388 1070.86 80.1748C1067.82 80.1748 1064.79 80.1748 1061.75 80.1748Z" fill="#026CA9" fill-opacity="0.8"/>
<path d="M993.759 6.69855C995.338 5.99033 1000.27 6.51243 1002.41 6.51243C1009.26 6.51243 1016.11 6.51243 1022.96 6.51243C1023.52 7.75558 1023.15 10.3935 1023.15 11.9996C1023.15 16.2777 1023.15 20.5571 1023.15 24.8347C1023.15 39.7768 1023.15 54.7229 1023.15 69.665C1039.02 69.6955 1054.9 69.7269 1070.77 69.7578C1070.8 46.508 1070.83 23.2516 1070.86 0.00182276C1067.82 0.00182276 1064.79 0.00182276 1061.75 0.00182276C1061.75 19.7795 1061.75 39.5633 1061.75 59.3409C1060.17 60.0487 1055.23 59.527 1053.1 59.527C1046.25 59.527 1039.39 59.527 1032.54 59.527C1032.51 58.4731 1032.48 57.4187 1032.45 56.3648C1032.42 51.1566 1032.39 45.947 1032.36 40.7392C1032.39 27.1614 1032.42 13.5796 1032.45 0.00182276C1016.42 0.00182276 1000.39 0.00182276 984.365 0.00182276C984.365 16.3077 984.365 32.6181 984.365 48.924C987.465 48.955 990.565 48.9859 993.666 49.0169C993.696 34.9121 993.728 20.8033 993.759 6.69855Z" fill="#026CA9" fill-opacity="0.35"/>
<path d="M1013.1 17.4872C1010.04 17.4563 1006.97 17.4253 1003.9 17.3944C1003.87 31.344 1003.83 45.298 1003.8 59.2481C1002.74 59.7255 1000.8 59.527 999.339 59.527C995.712 59.527 992.084 59.527 988.457 59.527C976.088 59.527 963.716 59.527 951.347 59.527C950.955 60.378 950.845 68.3763 951.254 69.3856C951.73 70.0102 954.235 69.6455 955.253 69.665C958.973 69.6955 962.694 69.7269 966.414 69.7578C981.914 69.7578 997.418 69.7578 1012.92 69.7578C1013.32 68.8511 1013.1 66.9881 1013.1 65.7582C1013.1 62.0385 1013.1 58.3175 1013.1 54.5973C1013.1 42.2286 1013.1 29.8559 1013.1 17.4872Z" fill="#026CA9" fill-opacity="0.35"/>
<path d="M1115.69 49.0168C1115.72 45.5451 1115.75 42.0721 1115.78 38.6C1110.73 38.569 1105.68 38.5381 1100.62 38.5067C1100.62 41.9793 1100.62 45.4523 1100.62 48.924C1105.65 48.9549 1110.67 48.9859 1115.69 49.0168Z" fill="#026CA9" fill-opacity="0.8"/>
<path d="M1214.65 69.758C1221.04 69.758 1227.43 69.758 1233.81 69.758C1234.2 68.8911 1233.91 67.5334 1233.9 66.4096C1233.94 63.4649 1233.97 60.5188 1234 57.5741C1234 47.7779 1234 37.979 1234 28.1833C1235.56 27.4861 1242.73 27.9972 1245.07 27.9976C1253.93 27.9976 1262.8 27.9976 1271.67 27.9976C1272.79 25.4927 1271.11 20.4901 1271.85 17.5803C1271.79 17.4874 1271.73 17.3946 1271.67 17.3013C1256.32 17.3327 1240.97 17.3632 1225.63 17.3946C1225.6 31.3751 1225.56 45.3605 1225.53 59.3411C1224.25 59.918 1221.51 59.5272 1219.86 59.5272C1215.46 59.5272 1211.06 59.5272 1206.65 59.5272C1206.62 62.8751 1206.59 66.2239 1206.56 69.5719C1208.05 70.2403 1212.63 69.758 1214.65 69.758Z" fill="#026CA9" fill-opacity="0.8"/>
<path d="M1291.48 17.3945C1288.38 17.3945 1285.28 17.3945 1282.18 17.3945C1282.14 34.8162 1282.11 52.2428 1282.08 69.665C1302.23 69.665 1322.39 69.665 1342.54 69.665C1342.54 66.3167 1342.54 62.9679 1342.54 59.6199C1325.61 59.589 1308.68 59.558 1291.76 59.5271C1291.73 56.1478 1291.69 52.768 1291.66 49.3892C1291.66 38.7561 1291.66 28.1199 1291.66 17.4873C1291.6 17.4564 1291.54 17.4254 1291.48 17.3945Z" fill="#026CA9" fill-opacity="0.8"/>
<path d="M1349.61 214.199C1348.97 212.8 1349.4 209.664 1349.42 207.875C1347.88 207.173 1342.79 207.666 1340.68 207.688C1339.94 209.318 1340.49 217.299 1340.49 219.78C1340.52 221.144 1340.55 222.508 1340.58 223.872C1341.1 224.315 1345.09 224.055 1346.17 224.058C1351.19 224.089 1356.21 224.12 1361.23 224.151C1362.02 222.419 1361.44 216.552 1361.42 214.199C1357.48 214.199 1353.54 214.199 1349.61 214.199Z" fill="#026CA9" fill-opacity="0.8"/>
<path d="M1291.57 0.00184084C1269.59 0.00184084 1247.61 0.00184084 1225.63 0.00184084C1225.63 2.1716 1225.63 4.34225 1225.63 6.51245C1247.57 6.51245 1269.53 6.51245 1291.48 6.51245C1291.51 4.34225 1291.54 2.1716 1291.57 0.00184084Z" fill="#026CA9" fill-opacity="0.1"/>
<path d="M1141.83 196.062C1146.85 196.062 1151.87 196.062 1156.89 196.062C1156.93 196.031 1156.96 196 1156.99 195.969C1156.96 192.777 1156.93 189.583 1156.89 186.39C1146.76 186.359 1136.62 186.328 1126.48 186.296C1125.96 187.453 1126.29 189.902 1126.29 191.412C1126.29 195.38 1126.29 199.349 1126.29 203.317C1127.87 204.032 1133.08 203.525 1135.22 203.503C1135.96 201.893 1135.43 198.273 1135.41 196.249C1136.86 195.596 1139.99 196.062 1141.83 196.062Z" fill="#026CA9" fill-opacity="0.8"/>
<path d="M1361.51 80.268C1358.54 80.2366 1355.56 80.2057 1352.58 80.1747C1352.55 87.1805 1352.52 94.1884 1352.49 101.194C1352.4 101.257 1352.3 101.318 1352.21 101.38C1348.34 101.412 1344.46 101.442 1340.58 101.474C1340.58 104.977 1340.58 108.48 1340.58 111.983C1344.46 111.983 1348.34 111.983 1352.21 111.983C1352.27 112.077 1352.34 112.169 1352.4 112.262C1352.43 115.734 1352.46 119.207 1352.49 122.679C1352.4 122.741 1352.3 122.803 1352.21 122.865C1348.37 122.896 1344.52 122.927 1340.68 122.958C1339.93 124.626 1340.49 129.916 1340.49 132.166C1340.49 139.575 1340.49 146.986 1340.49 154.395C1341.9 155.028 1344.93 154.581 1346.72 154.581C1351.59 154.581 1356.46 154.581 1361.33 154.581C1361.36 151.047 1361.39 147.512 1361.42 143.978C1359.9 143.291 1352.47 143.773 1350.16 143.792C1350.1 143.699 1350.04 143.606 1349.98 143.513C1349.98 140.134 1349.98 136.754 1349.98 133.375C1350.01 133.282 1350.04 133.189 1350.07 133.096C1353.82 133.096 1357.58 133.096 1361.33 133.096C1361.74 132.169 1361.51 130.257 1361.51 129.004C1361.51 125.253 1361.51 121.501 1361.51 117.75C1361.51 105.257 1361.51 92.7605 1361.51 80.268Z" fill="#026CA9" fill-opacity="0.5"/>
<path d="M1330.26 27.9976C1330.29 20.9295 1330.32 13.8596 1330.35 6.79154C1330.45 6.72965 1330.54 6.66776 1330.63 6.60542C1340.86 6.57448 1351.1 6.54353 1361.33 6.51258C1361.36 4.34238 1361.39 2.17173 1361.42 0.00196852C1348.06 0.00196852 1334.69 0.00196852 1321.33 0.00196852C1321.36 9.33265 1321.39 18.6664 1321.43 27.9976C1324.37 27.9976 1327.32 27.9976 1330.26 27.9976Z" fill="#026CA9" fill-opacity="0.35"/>
<path d="M1305.8 49.0168C1309.37 49.0168 1312.93 49.0168 1316.5 49.0168C1328.4 49.0168 1340.31 49.0168 1352.21 49.0168C1352.27 49.1101 1352.34 49.2029 1352.4 49.2958C1352.43 56.023 1352.46 62.7516 1352.49 69.4788C1353.96 70.1468 1359.37 69.7794 1361.33 69.7578C1362.07 68.1048 1361.51 62.8736 1361.51 60.6428C1361.51 53.3272 1361.51 46.0089 1361.51 38.6932C1344.74 38.6623 1327.97 38.6309 1311.19 38.5999C1311.16 25.7352 1311.13 12.8665 1311.1 0.00178001C1308.03 0.00178001 1304.96 0.00178001 1301.89 0.00178001C1301.89 16.2763 1301.89 32.5562 1301.89 48.8311C1302.78 49.2277 1304.59 49.0168 1305.8 49.0168Z" fill="#026CA9" fill-opacity="0.1"/>
<path d="M1390.07 165.463C1370.26 165.494 1350.44 165.525 1330.63 165.556C1330.57 165.463 1330.51 165.37 1330.45 165.277C1330.42 140.415 1330.39 115.546 1330.35 90.6847C1331.13 89.8863 1340.41 90.2873 1342.45 90.3129C1343.24 88.5667 1342.65 82.6401 1342.63 80.2683C1336.25 80.2059 1329.86 80.144 1323.47 80.0822C1309.71 80.0822 1295.94 80.0822 1282.18 80.0822C1282.14 80.144 1282.11 80.2059 1282.08 80.2683C1282.08 83.5539 1282.08 86.8408 1282.08 90.1268C1286.42 90.1887 1290.76 90.251 1295.1 90.3129C1303.78 90.2815 1312.47 90.251 1321.15 90.2196C1321.88 91.8642 1321.33 95.4195 1321.33 97.4743C1321.33 103.24 1321.33 109.008 1321.33 114.774C1321.33 134.954 1321.33 155.141 1321.33 175.322C1347.4 175.353 1373.48 175.384 1399.55 175.415C1399.58 164.937 1399.62 154.456 1399.65 143.978C1398.63 143.37 1393.82 143.792 1392.21 143.792C1387.74 143.792 1383.28 143.792 1378.81 143.792C1376.36 143.792 1373.91 143.792 1371.46 143.792C1371.46 147.389 1371.46 150.985 1371.46 154.581C1377.66 154.581 1383.86 154.581 1390.07 154.581C1390.47 155.473 1390.58 164.129 1390.16 165.184C1390.13 165.277 1390.1 165.37 1390.07 165.463Z" fill="#026CA9" fill-opacity="0.2"/>
<path d="M1330.35 196.249C1332.07 195.511 1337.26 196.155 1339.66 196.155C1346.88 196.124 1354.1 196.094 1361.33 196.062C1361.36 192.838 1361.39 189.613 1361.42 186.39C1359.9 185.693 1352.66 186.212 1350.35 186.204C1340.77 186.173 1331.19 186.142 1321.61 186.111C1321.52 186.173 1321.43 186.235 1321.33 186.296C1321.36 198.883 1321.39 211.472 1321.43 224.058C1324.37 224.058 1327.32 224.058 1330.26 224.058C1330.29 214.789 1330.32 205.517 1330.35 196.249Z" fill="#026CA9" fill-opacity="0.8"/>
<path d="M1399.65 234.94C1373.54 234.909 1347.43 234.878 1321.33 234.847C1321.33 247.123 1321.33 259.402 1321.33 271.678C1341.14 271.709 1360.96 271.74 1380.76 271.771C1380.8 266.563 1380.83 261.354 1380.86 256.146C1377.73 256.146 1374.59 256.146 1371.46 256.146C1371.46 258.067 1371.46 259.99 1371.46 261.912C1357.82 261.974 1344.18 262.036 1330.54 262.098C1330.02 260.942 1330.35 258.493 1330.35 256.983C1330.35 253.046 1330.35 249.108 1330.35 245.171C1330.93 244.9 1331.86 245.122 1332.68 244.985C1337.27 244.985 1341.86 244.985 1346.44 244.985C1360.98 244.985 1375.53 244.985 1390.07 244.985C1390.49 245.933 1390.25 247.893 1390.25 249.17C1390.25 253.014 1390.25 256.859 1390.25 260.703C1390.25 273.475 1390.25 286.25 1390.25 299.022C1391.87 299.756 1397.26 299.23 1399.46 299.208C1400.03 297.944 1399.65 295.258 1399.65 293.628C1399.65 289.288 1399.65 284.947 1399.65 280.607C1399.65 265.386 1399.65 250.161 1399.65 234.94Z" fill="#026CA9" fill-opacity="0.8"/>
<path d="M1215.58 49.0169C1216.63 46.7216 1215.28 39.9873 1215.77 36.9262C1215.8 24.6194 1215.83 12.3087 1215.86 0.0018444C1212.76 0.0018444 1209.66 0.0018444 1206.56 0.0018444C1206.56 16.2764 1206.56 32.5562 1206.56 48.8312C1208.15 49.5518 1213.42 49.039 1215.58 49.0169Z" fill="#026CA9" fill-opacity="0.8"/>
<path d="M1068.91 186.203C1053.69 186.235 1038.46 186.266 1023.24 186.296C1023.21 198.852 1023.18 211.41 1023.15 223.965C1026.16 224.027 1029.16 224.089 1032.17 224.151C1032.87 222.602 1032.36 217.783 1032.36 215.687C1032.39 209.177 1032.42 202.665 1032.45 196.155C1042.18 196.124 1051.92 196.094 1061.65 196.062C1061.69 202.045 1061.72 208.03 1061.75 214.013C1060.03 214.792 1054.22 214.221 1051.89 214.199C1051.25 212.8 1051.68 209.664 1051.7 207.875C1050.1 207.147 1044.77 207.666 1042.59 207.688C1042.17 208.615 1042.4 210.529 1042.4 211.781C1042.43 215.841 1042.46 219.904 1042.49 223.965C1051.92 223.996 1061.35 224.027 1070.77 224.058C1070.83 211.503 1070.89 198.944 1070.96 186.39C1070.5 186.17 1069.64 186.178 1068.91 186.203Z" fill="#026CA9" fill-opacity="0.8"/>
<path d="M1135.5 38.6934C1132.43 38.6624 1129.36 38.631 1126.29 38.6001C1126.26 48.9233 1126.23 59.2491 1126.2 69.5718C1127.82 70.2995 1132.94 69.7579 1135.13 69.7579C1142.29 69.7579 1149.45 69.7579 1156.62 69.7579C1157.41 67.9971 1156.82 62.0112 1156.8 59.62C1149.73 59.589 1142.66 59.5581 1135.6 59.5271C1134.84 57.9409 1135.5 55.2071 1135.5 53.3883C1135.5 48.4904 1135.5 43.5908 1135.5 38.6934Z" fill="#026CA9" fill-opacity="0.1"/>
<path d="M1135.41 17.4874C1123.85 17.4255 1112.28 17.3632 1100.72 17.3013C1100.13 18.3777 1100.51 25.9816 1100.53 27.9043C1112.13 27.9352 1123.72 27.9662 1135.32 27.9976C1135.35 24.4945 1135.38 20.99 1135.41 17.4874Z" fill="#026CA9" fill-opacity="0.8"/>
<path d="M1156.8 38.6933C1153.17 38.6623 1149.55 38.6309 1145.92 38.6C1145.92 41.9793 1145.92 45.359 1145.92 48.7379C1146.25 49.203 1155.21 49.0359 1156.71 49.0169C1156.74 45.5761 1156.77 42.134 1156.8 38.6933Z" fill="#026CA9" fill-opacity="0.35"/>
<path d="M1135.5 143.978C1133.9 143.251 1128.57 143.77 1126.39 143.792C1125.63 145.474 1126.2 150.824 1126.2 153.093C1126.2 160.502 1126.2 167.913 1126.2 175.322C1136.43 175.353 1146.66 175.384 1156.89 175.415C1156.89 172.129 1156.89 168.842 1156.89 165.556C1149.83 165.556 1142.76 165.556 1135.69 165.556C1134.95 164.099 1135.5 161.074 1135.5 159.232C1135.5 154.148 1135.5 149.062 1135.5 143.978Z" fill="#026CA9" fill-opacity="0.35"/>
<path d="M1177.08 186.389C1175.42 185.636 1169.85 186.182 1167.59 186.203C1166.92 187.71 1167.4 192.348 1167.4 194.388C1167.4 200.898 1167.4 207.41 1167.4 213.92C1165.79 214.688 1162.1 214.106 1160.06 214.106C1155.1 214.137 1150.14 214.168 1145.18 214.199C1126.89 214.199 1108.59 214.199 1090.3 214.199C1089.75 212.98 1090.11 210.385 1090.11 208.805C1090.11 204.62 1090.11 200.433 1090.11 196.248C1091.56 195.592 1098.52 196.043 1100.72 196.062C1100.72 198.511 1100.72 200.961 1100.72 203.41C1105.68 203.441 1110.64 203.472 1115.6 203.503C1115.98 202.659 1115.78 200.942 1115.78 199.782C1115.82 195.35 1115.85 190.916 1115.88 186.482C1115.69 186.279 1115.75 186.302 1115.41 186.203C1103.94 186.266 1092.47 186.328 1081 186.389C1080.97 198.882 1080.94 211.379 1080.91 223.872C1082.34 224.555 1087.19 224.058 1089.18 224.057C1095.63 224.089 1102.08 224.12 1108.53 224.151C1131.35 224.12 1154.17 224.089 1176.98 224.057C1177.02 211.503 1177.05 198.944 1177.08 186.389Z" fill="#026CA9" fill-opacity="0.35"/>
<path d="M1187.21 175.415C1196.7 175.415 1206.19 175.415 1215.68 175.415C1215.74 150.863 1215.8 126.305 1215.86 101.753C1214.88 101.028 1208.48 101.449 1206.65 101.474C1206.62 122.74 1206.59 144.011 1206.56 165.277C1204.8 166.076 1198.81 165.485 1196.42 165.463C1195.65 163.778 1196.24 155.3 1196.24 152.721C1196.24 142.832 1196.24 132.941 1196.24 123.052C1176.06 123.021 1155.87 122.99 1135.69 122.958C1134.89 121.212 1135.5 115.381 1135.5 113.007C1135.5 105.505 1135.5 98.0008 1135.5 90.499C1136.91 89.8602 1143.59 90.2935 1145.73 90.3129C1146.39 91.7652 1145.92 94.8894 1145.92 96.7303C1145.92 101.783 1145.92 106.838 1145.92 111.891C1148.19 112.912 1153.31 111.644 1156.15 112.077C1169.39 112.077 1182.63 112.077 1195.86 112.077C1196.35 111.696 1196.17 102.882 1196.24 101.474C1183.09 101.474 1169.95 101.474 1156.8 101.474C1156.17 100.063 1156.62 97.0366 1156.62 95.2422C1156.65 90.2515 1156.68 85.259 1156.71 80.2683C1146.57 80.2369 1136.43 80.2059 1126.29 80.175C1126.26 97.7515 1126.23 115.334 1126.2 132.911C1127.4 133.448 1129.94 133.097 1131.5 133.096C1135.6 133.096 1139.69 133.096 1143.78 133.096C1158.16 133.096 1172.55 133.096 1186.94 133.096C1187.69 134.79 1187.12 142.914 1187.12 145.467C1187.15 155.448 1187.18 165.433 1187.21 175.415Z" fill="#026CA9" fill-opacity="0.1"/>
<path d="M1281.8 165.463C1263.08 165.494 1244.35 165.525 1225.63 165.556C1225.6 168.842 1225.56 172.129 1225.53 175.415C1247.54 175.415 1269.56 175.415 1291.57 175.415C1291.57 164.906 1291.57 154.394 1291.57 143.885C1272.44 143.854 1253.31 143.824 1234.18 143.792C1233.62 142.528 1234 139.842 1234 138.212C1234 133.934 1234 129.655 1234 125.377C1234 110.342 1234 95.3028 1234 80.2683C1229.46 79.0278 1223.7 80.8461 1218.93 80.175C1201.79 80.175 1184.64 80.175 1167.5 80.175C1167.5 83.461 1167.5 86.7479 1167.5 90.0335C1168.16 90.6449 1170.35 90.0433 1171.4 90.2196C1175.09 90.251 1178.78 90.2815 1182.47 90.3129C1196.79 90.3129 1211.12 90.3129 1225.44 90.3129C1225.5 111.733 1225.56 133.161 1225.63 154.581C1244.32 154.581 1263.02 154.581 1281.71 154.581C1282.36 155.063 1282.11 163.581 1282.08 165.277C1281.99 165.339 1281.9 165.401 1281.8 165.463Z" fill="#026CA9" fill-opacity="0.35"/>
<path d="M1145.92 251.216C1146.25 251.682 1155.21 251.514 1156.71 251.495C1156.74 246.009 1156.77 240.52 1156.8 235.033C1153.83 234.224 1149.27 234.826 1145.92 234.847C1145.92 240.303 1145.92 245.76 1145.92 251.216Z" fill="#026CA9" fill-opacity="0.8"/>
<path d="M1271.85 38.6933C1268.94 38.6623 1266.02 38.6309 1263.11 38.6C1263.08 48.9232 1263.05 59.249 1263.02 69.5717C1265.93 69.6336 1268.85 69.6955 1271.76 69.7578C1272.5 68.104 1271.95 62.8745 1271.95 60.6429C1271.91 53.3272 1271.88 46.0089 1271.85 38.6933Z" fill="#026CA9" fill-opacity="0.5"/>
<path d="M1055.14 245.45C1060.29 245.419 1065.44 245.388 1070.58 245.357C1071.34 244.498 1070.57 236.771 1070.86 235.033C1070.86 235.002 1070.86 234.971 1070.86 234.94C1061.44 234.909 1052.01 234.878 1042.59 234.847C1042.56 240.365 1042.53 245.884 1042.49 251.402C1044.08 252.123 1049.35 251.61 1051.52 251.588C1052.12 250.273 1051.73 247.331 1051.7 245.636C1052.39 245.279 1053.93 245.45 1055.14 245.45Z" fill="#026CA9" fill-opacity="0.35"/>
<path d="M1430.43 303.486C1429.85 304.738 1430.22 307.535 1430.24 309.16C1429.38 309.547 1427.61 309.346 1426.43 309.346C1422.93 309.346 1419.43 309.346 1415.92 309.346C1404.3 309.346 1392.67 309.346 1381.04 309.346C1380.39 307.884 1380.86 303.424 1380.86 301.44C1380.89 295.117 1380.92 288.791 1380.95 282.467C1377.82 282.436 1374.69 282.405 1371.56 282.374C1371.56 294.588 1371.56 306.805 1371.56 319.019C1391.58 319.05 1411.61 319.081 1431.64 319.112C1432.39 320.413 1431.85 327.246 1431.83 329.529C1430.62 330.066 1428.08 329.715 1426.53 329.715C1422.46 329.715 1418.4 329.715 1414.34 329.715C1400.08 329.715 1385.82 329.715 1371.56 329.715C1371.53 330.924 1371.49 332.133 1371.46 333.342C1394.31 333.342 1417.16 333.342 1440.01 333.342C1440.01 323.391 1440.01 313.437 1440.01 303.486C1436.85 303.486 1433.69 303.486 1430.52 303.486C1430.49 303.486 1430.46 303.486 1430.43 303.486Z" fill="#026CA9" fill-opacity="0.8"/>
<path d="M1361.51 282.374C1359.89 281.646 1352.24 282.188 1349.79 282.188C1340.37 282.188 1330.94 282.188 1321.52 282.188C1321.49 287.829 1321.46 293.473 1321.43 299.115C1324.37 299.115 1327.32 299.115 1330.26 299.115C1330.29 296.79 1330.32 294.465 1330.35 292.139C1337.64 292.078 1344.93 292.015 1352.21 291.954C1352.8 292.393 1352.74 294.886 1352.58 295.953C1352.58 300.355 1352.58 304.758 1352.58 309.16C1350.92 309.905 1343 309.346 1340.49 309.346C1330.76 309.346 1321.02 309.346 1311.29 309.346C1310.63 307.87 1311.1 304.702 1311.1 302.836C1311.1 297.752 1311.1 292.666 1311.1 287.582C1311.1 270.068 1311.1 252.547 1311.1 235.033C1308.64 234.351 1304.81 234.825 1301.99 234.847C1301.96 243.805 1301.92 252.767 1301.89 261.726C1301.89 280.791 1301.89 299.861 1301.89 318.926C1302.54 319.221 1303.49 318.924 1304.13 319.019C1309.09 319.05 1314.05 319.081 1319.01 319.112C1333.11 319.112 1347.22 319.112 1361.33 319.112C1362.01 317.584 1361.51 310.613 1361.51 308.323C1361.51 299.674 1361.51 291.023 1361.51 282.374Z" fill="#026CA9" fill-opacity="0.1"/>
<path d="M1301.89 223.872C1303.59 224.644 1308.67 223.978 1310.82 224.151C1311.73 222.618 1311.1 215.5 1311.1 213.083C1311.1 204.186 1311.1 195.286 1311.1 186.389C1309.52 185.669 1304.24 186.182 1302.08 186.203C1301.38 187.761 1301.89 194.935 1301.89 197.272C1301.89 206.137 1301.89 215.006 1301.89 223.872Z" fill="#026CA9" fill-opacity="0.8"/>
<path d="M1409.41 299.116C1410.85 299.772 1416.26 299.4 1418.15 299.395C1418.92 297.725 1418.27 294.376 1418.24 292.326C1425.5 292.264 1432.76 292.202 1440.01 292.139C1440.01 288.823 1440.01 285.505 1440.01 282.188C1429.84 282.219 1419.67 282.25 1409.5 282.281C1409.47 287.892 1409.44 293.504 1409.41 299.116Z" fill="#026CA9" fill-opacity="0.35"/>
<path d="M1282.18 186.204C1282.18 198.789 1282.18 211.379 1282.18 223.965C1285.28 223.996 1288.38 224.027 1291.48 224.058C1291.54 219.997 1291.6 215.935 1291.66 211.874C1291.63 203.349 1291.6 194.822 1291.57 186.296C1288.44 186.266 1285.31 186.235 1282.18 186.204Z" fill="#026CA9" fill-opacity="0.5"/>
<path d="M1301.89 175.322C1304.9 175.353 1307.91 175.384 1310.92 175.415C1311.56 173.982 1311.1 170.909 1311.1 169.091C1311.1 164.099 1311.1 159.107 1311.1 154.116C1311.1 136.602 1311.1 119.081 1311.1 101.567C1309.27 100.75 1303.79 101.474 1301.34 101.474C1291.54 101.442 1281.74 101.412 1271.95 101.381C1271.95 94.4058 1271.95 87.4288 1271.95 80.454C1271.91 80.3607 1271.88 80.2678 1271.85 80.175C1268.94 80.175 1266.02 80.175 1263.11 80.175C1263.08 90.7767 1263.05 101.382 1263.02 111.984C1267.17 112.015 1271.33 112.045 1275.48 112.077C1284.19 112.077 1292.9 112.077 1301.61 112.077C1301.68 112.17 1301.74 112.263 1301.8 112.356C1301.83 133.343 1301.86 154.335 1301.89 175.322Z" fill="#026CA9" fill-opacity="0.8"/>
<path d="M1263.11 256.238C1263.08 261.354 1263.05 266.47 1263.02 271.585C1264.55 272.273 1269.31 271.771 1271.39 271.771C1278.08 271.771 1284.78 271.771 1291.48 271.771C1291.51 259.464 1291.54 247.154 1291.57 234.847C1275.61 234.847 1259.64 234.847 1243.67 234.847C1243.7 253.074 1243.73 271.307 1243.76 289.535C1242.09 290.295 1236.46 289.744 1234.18 289.722C1233.4 288.26 1234 284.414 1234 282.281C1234 276.081 1234 269.879 1234 263.679C1234 241.205 1234 218.723 1234 196.248C1235.85 195.479 1240.2 196.062 1242.74 196.062C1249.44 196.062 1256.13 196.062 1262.83 196.062C1263.34 197.195 1263.02 199.599 1263.02 201.085C1262.99 205.425 1262.95 209.766 1262.92 214.106C1259.58 214.137 1256.23 214.168 1252.88 214.199C1252.36 213.078 1252.42 209.274 1252.79 207.967C1252.75 207.874 1252.72 207.781 1252.69 207.688C1249.72 207.688 1246.74 207.688 1243.76 207.688C1243.76 213.114 1243.76 218.54 1243.76 223.965C1253.13 223.996 1262.49 224.027 1271.85 224.057C1271.88 211.472 1271.91 198.882 1271.95 186.296C1270.98 185.966 1269.07 186.111 1267.57 186.111C1264.13 186.111 1260.69 186.111 1257.25 186.111C1246.71 186.141 1236.17 186.172 1225.63 186.203C1225.6 223.837 1225.57 261.482 1225.53 299.115C1240.82 299.146 1256.1 299.177 1271.39 299.208C1271.45 296.697 1271.51 294.185 1271.57 291.675C1275.01 291.643 1278.46 291.612 1281.9 291.582C1281.93 293.41 1281.96 295.24 1281.99 297.069C1281.99 301.13 1281.99 305.192 1281.99 309.253C1259.98 309.284 1237.96 309.315 1215.95 309.346C1215.3 307.891 1215.77 304.771 1215.77 302.929C1215.77 297.906 1215.77 292.883 1215.77 287.861C1215.8 270.222 1215.83 252.578 1215.86 234.94C1212.79 234.908 1209.72 234.878 1206.65 234.847C1206.65 262.901 1206.65 290.964 1206.65 319.019C1234.93 319.05 1263.21 319.081 1291.48 319.112C1291.51 306.836 1291.54 294.557 1291.57 282.281C1282.08 282.25 1272.6 282.219 1263.11 282.188C1263.08 284.575 1263.05 286.962 1263.02 289.349C1262.99 289.442 1262.95 289.535 1262.92 289.629C1259.76 289.659 1256.6 289.69 1253.44 289.722C1253.37 289.629 1253.31 289.535 1253.25 289.442C1253.22 274.81 1253.19 260.175 1253.16 245.542C1254.71 244.848 1259.52 245.356 1261.62 245.356C1268.38 245.356 1275.14 245.356 1281.9 245.356C1282.33 246.324 1282.08 248.336 1282.08 249.635C1282.08 253.696 1282.08 257.758 1282.08 261.819C1280.62 262.484 1273.53 262.024 1271.29 262.005C1270.68 260.672 1271.17 257.896 1271.2 256.332C1268.5 256.301 1265.81 256.27 1263.11 256.238Z" fill="#026CA9" fill-opacity="0.3"/>
<path d="M1418.24 95.149C1418.24 90.1888 1418.24 85.2277 1418.24 80.2679C1415.77 79.5955 1412.25 80.157 1409.41 80.1747C1409.41 90.7454 1409.41 101.32 1409.41 111.89C1411.05 112.624 1416.22 112.077 1418.43 112.077C1425.62 112.077 1432.82 112.077 1440.01 112.077C1440.01 108.573 1440.01 105.069 1440.01 101.566C1432.82 101.535 1425.62 101.504 1418.43 101.474C1417.79 100.042 1418.24 96.966 1418.24 95.149Z" fill="#026CA9" fill-opacity="0.8"/>
<path d="M1206.56 223.872C1208.15 224.592 1213.42 224.08 1215.58 224.057C1216.28 222.501 1215.77 215.326 1215.77 212.99C1215.8 204.124 1215.83 195.255 1215.86 186.389C1214.26 185.662 1208.93 186.182 1206.75 186.203C1206.06 187.649 1206.56 195.187 1206.56 197.457C1206.56 206.262 1206.56 215.068 1206.56 223.872Z" fill="#026CA9" fill-opacity="0.8"/>
<path d="M1409.41 48.8312C1411.05 49.5651 1416.22 49.0169 1418.43 49.0169C1425.62 49.0169 1432.82 49.0169 1440.01 49.0169C1440.01 45.5452 1440.01 42.0722 1440.01 38.6C1429.84 38.6 1419.67 38.6 1409.5 38.6C1409.47 42.0103 1409.44 45.421 1409.41 48.8312Z" fill="#026CA9" fill-opacity="0.8"/>
<path d="M1399.65 54.1324C1399.62 48.9555 1399.58 43.7774 1399.55 38.6001C1396.48 38.6001 1393.41 38.6001 1390.34 38.6001C1390.31 48.9233 1390.28 59.2491 1390.25 69.5718C1391.91 70.3132 1399.76 69.7579 1402.25 69.7579C1412.02 69.727 1421.78 69.6956 1431.55 69.6651C1432.19 71.0829 1431.75 77.8344 1431.73 79.9887C1430.81 80.4153 1428.8 80.2 1427.55 80.1748C1427.55 83.5227 1427.55 86.8715 1427.55 90.2195C1431.7 90.2509 1435.86 90.2814 1440.01 90.3127C1440.01 80.0519 1440.01 69.7875 1440.01 59.5271C1426.62 59.5271 1413.22 59.5271 1399.83 59.5271C1399.28 58.3043 1399.65 55.7159 1399.65 54.1324Z" fill="#026CA9" fill-opacity="0.8"/>
<path d="M1409.41 271.585C1411.05 272.319 1416.22 271.771 1418.43 271.77C1425.62 271.77 1432.82 271.77 1440.01 271.77C1440.01 266.563 1440.01 261.354 1440.01 256.145C1436.51 256.145 1433 256.145 1429.5 256.145C1429.47 258.037 1429.44 259.928 1429.41 261.819C1427.91 262.497 1420.62 262.024 1418.34 262.005C1417.8 260.813 1418.15 258.256 1418.15 256.703C1418.15 252.89 1418.15 249.076 1418.15 245.263C1418.24 245.201 1418.34 245.14 1418.43 245.077C1425.62 245.046 1432.82 245.015 1440.01 244.984C1440.01 241.606 1440.01 238.225 1440.01 234.846C1429.81 234.846 1419.61 234.846 1409.41 234.846C1409.41 247.091 1409.41 259.34 1409.41 271.585Z" fill="#026CA9" fill-opacity="0.8"/>
<path d="M1340.49 27.8113C1341.81 28.4378 1344.38 27.6195 1346.17 27.9042C1353.73 27.9351 1361.3 27.966 1368.86 27.9974C1392.57 27.966 1416.3 27.9351 1440.01 27.9042C1440.01 24.4011 1440.01 20.8975 1440.01 17.3944C1406.87 17.3944 1373.72 17.3944 1340.58 17.3944C1340.55 20.8661 1340.52 24.3392 1340.49 27.8113Z" fill="#026CA9" fill-opacity="0.8"/>
<path d="M1371.46 0.00184084C1371.46 2.14066 1371.46 4.28036 1371.46 6.41918C1374.28 6.45012 1377.11 6.48151 1379.93 6.51245C1385.45 6.51245 1390.96 6.51245 1396.48 6.51245C1410.99 6.51245 1425.5 6.51245 1440.01 6.51245C1440.01 4.34225 1440.01 2.1716 1440.01 0.00184084C1417.16 0.00184084 1394.31 0.00184084 1371.46 0.00184084Z" fill="#026CA9" fill-opacity="0.35"/>
<path d="M1409.41 191.412C1409.41 195.38 1409.41 199.35 1409.41 203.317C1412.29 203.379 1415.18 203.442 1418.06 203.503C1418.84 201.8 1418.17 198.37 1418.15 196.342C1418.24 196.28 1418.34 196.218 1418.43 196.155C1425.62 196.125 1432.82 196.094 1440.01 196.063C1440.01 192.777 1440.01 189.49 1440.01 186.204C1429.87 186.204 1419.73 186.204 1409.6 186.204C1409.07 187.381 1409.41 189.879 1409.41 191.412Z" fill="#026CA9" fill-opacity="0.8"/>
<path d="M1380.86 196.155C1383.89 196.124 1386.93 196.094 1389.97 196.062C1390.71 197.673 1390.18 201.292 1390.16 203.317C1391.04 203.72 1398.24 203.769 1399.55 203.41C1399.55 197.737 1399.55 192.062 1399.55 186.39C1398.76 185.693 1393.7 186.202 1392.3 186.204C1385.38 186.204 1378.47 186.204 1371.56 186.204C1371.53 198.789 1371.49 211.379 1371.46 223.965C1394.31 223.996 1417.16 224.027 1440.01 224.058C1440.01 220.772 1440.01 217.485 1440.01 214.199C1420.33 214.199 1400.64 214.199 1380.95 214.199C1380.92 208.185 1380.89 202.169 1380.86 196.155Z" fill="#026CA9" fill-opacity="0.45"/>
<path d="M1380.86 38.6C1380.8 38.569 1380.73 38.5381 1380.67 38.5067C1377.63 38.5381 1374.59 38.569 1371.56 38.6C1371.53 48.9232 1371.49 59.249 1371.46 69.5717C1374.56 69.6336 1377.66 69.6955 1380.76 69.7578C1380.8 59.3728 1380.83 48.985 1380.86 38.6Z" fill="#026CA9" fill-opacity="0.5"/>
<path d="M1409.41 151.605C1409.38 159.478 1409.35 167.355 1409.32 175.228C1414.19 175.26 1419.05 175.291 1423.92 175.321C1424.12 175.163 1424.35 166.342 1424.11 165.742C1423.77 165.289 1419.55 165.528 1418.43 165.556C1417.76 164.079 1418.23 156.921 1418.24 154.674C1419.24 154.228 1421.3 154.488 1422.62 154.488C1426.74 154.488 1430.87 154.488 1434.99 154.488C1435.65 155.96 1435.08 158.776 1435.08 160.626C1435.08 165.493 1435.08 170.362 1435.08 175.228C1436.72 175.26 1438.37 175.291 1440.01 175.321C1440.01 164.844 1440.01 154.363 1440.01 143.885C1429.9 143.885 1419.8 143.885 1409.69 143.885C1409.17 144.281 1409.41 150.324 1409.41 151.605Z" fill="#026CA9" fill-opacity="0.8"/>
<path d="M1381.04 90.2195C1384.02 90.2509 1387 90.2814 1389.97 90.3128C1390.04 90.4056 1390.1 90.4989 1390.16 90.5918C1390.16 94.1877 1390.16 97.785 1390.16 101.38C1387.09 101.412 1384.02 101.442 1380.95 101.474C1380.54 99.9441 1380.49 91.437 1381.04 90.2195ZM1380.95 122.773C1380.95 119.3 1380.95 115.827 1380.95 112.356C1380.95 112.293 1380.95 112.231 1380.95 112.17C1387.12 112.17 1393.29 112.17 1399.46 112.17C1399.52 101.536 1399.58 90.9008 1399.65 80.2682C1398.17 79.6912 1394.07 79.941 1392.11 80.1749C1385.29 80.1439 1378.47 80.1125 1371.65 80.082C1371.62 80.082 1371.59 80.082 1371.56 80.082C1371.53 97.7204 1371.49 115.365 1371.46 133.003C1394.31 133.034 1417.16 133.065 1440.01 133.096C1440.01 129.717 1440.01 126.338 1440.01 122.958C1420.39 122.99 1400.76 123.021 1381.14 123.052C1381.07 122.958 1381.01 122.865 1380.95 122.773Z" fill="#026CA9" fill-opacity="0.5"/>
<path d="M1196.24 186.296C1193.23 186.266 1190.22 186.235 1187.21 186.204C1187.18 198.759 1187.15 211.317 1187.12 223.872C1190.07 223.934 1193.01 223.996 1195.96 224.058C1196.66 222.501 1196.14 215.326 1196.14 212.99C1196.17 204.093 1196.21 195.193 1196.24 186.296Z" fill="#026CA9" fill-opacity="0.8"/>
<path d="M1023.15 234.847C1023.15 240.396 1023.15 245.946 1023.15 251.495C1026.19 251.526 1029.23 251.557 1032.26 251.588C1032.71 250.6 1032.45 248.539 1032.45 247.217C1032.45 243.125 1032.45 239.032 1032.45 234.94C1029.35 234.908 1026.25 234.877 1023.15 234.847Z" fill="#026CA9" fill-opacity="0.5"/>
<path d="M984.365 101.473C984.365 126.087 984.365 150.708 984.365 175.321C987.465 175.321 990.565 175.321 993.666 175.321C993.696 150.677 993.728 126.025 993.759 101.38C990.628 101.411 987.496 101.442 984.365 101.473Z" fill="#026CA9" fill-opacity="0.8"/>
<path d="M984.365 223.965C987.434 223.996 990.504 224.027 993.572 224.058C993.634 211.472 993.696 198.883 993.759 186.296C990.659 186.266 987.558 186.235 984.458 186.204C984.427 198.789 984.396 211.379 984.365 223.965Z" fill="#026CA9" fill-opacity="0.8"/>
<path d="M946.418 154.674C952.587 154.643 958.757 154.612 964.926 154.581C965.591 156.048 965.131 163.138 965.112 165.37C963.717 166.007 959.217 165.579 957.299 165.556C956.533 167.244 957.091 172.933 957.113 175.229C962.848 175.291 968.585 175.353 974.32 175.415C974.351 164.906 974.382 154.394 974.413 143.885C962.943 143.854 951.47 143.824 940 143.792C940 154.301 940 164.813 940 175.322C942.108 175.322 944.217 175.322 946.325 175.322C946.356 168.44 946.387 161.556 946.418 154.674Z" fill="#026CA9" fill-opacity="0.35"/>
<path d="M974.413 123.144C972.599 122.332 966.715 122.958 964.275 122.958C956.184 122.958 948.091 122.958 940 122.958C940 126.307 940 129.655 940 133.003C951.439 133.034 962.881 133.065 974.32 133.096C975.168 131.225 974.433 125.54 974.413 123.144Z" fill="#026CA9" fill-opacity="0.8"/>
<path d="M974.506 186.39C973.02 185.723 966.315 186.204 964.089 186.204C956.06 186.173 948.029 186.142 940 186.111C940 189.459 940 192.808 940 196.155C948.277 196.124 956.556 196.094 964.833 196.062C965.366 197.236 965.112 199.479 965.112 201.085C965.112 205.363 965.112 209.642 965.112 213.92C963.363 214.706 959.564 214.106 957.392 214.106C951.595 214.137 945.797 214.168 940 214.199C940 217.485 940 220.772 940 224.058C951.47 224.027 962.943 223.996 974.413 223.965C974.444 211.441 974.475 198.913 974.506 186.39Z" fill="#026CA9" fill-opacity="0.8"/>
<path d="M1177.08 303.673C1176.48 303.147 1169.05 303.465 1167.59 303.486C1167.59 308.602 1167.59 313.718 1167.59 318.833C1168.09 319.272 1175.62 319.132 1176.89 319.112C1177.49 317.838 1177.11 309.126 1177.08 308.788C1177.08 307.083 1177.08 305.378 1177.08 303.673Z" fill="#026CA9" fill-opacity="0.35"/>
<path d="M1145.92 298.929C1146.25 299.396 1154.95 299.228 1156.43 299.208C1157.12 297.703 1156.64 294.325 1156.62 292.419C1158.35 291.643 1163.34 292.325 1165.64 292.325C1172.77 292.325 1179.9 292.325 1187.03 292.325C1187.68 293.788 1187.21 298.248 1187.21 300.231C1187.18 306.462 1187.15 312.695 1187.12 318.926C1190.16 318.988 1193.2 319.05 1196.24 319.112C1196.24 306.929 1196.24 294.743 1196.24 282.56C1179.47 282.56 1162.69 282.56 1145.92 282.56C1145.92 288.015 1145.92 293.473 1145.92 298.929Z" fill="#026CA9" fill-opacity="0.1"/>
<path d="M1187.21 245.356C1190.16 245.388 1193.11 245.419 1196.05 245.45C1196.11 241.947 1196.17 238.443 1196.24 234.94C1193.23 234.909 1190.22 234.878 1187.21 234.847C1187.21 238.35 1187.21 241.854 1187.21 245.356Z" fill="#026CA9" fill-opacity="0.35"/>
<path d="M1187.12 261.912C1183.84 261.943 1180.55 261.974 1177.26 262.005C1176.6 260.529 1177.08 256.009 1177.08 254.007C1177.08 247.652 1177.08 241.295 1177.08 234.94C1173.88 234.909 1170.69 234.878 1167.5 234.847C1167.47 243.837 1167.44 252.83 1167.4 261.819C1165.72 262.573 1160.37 262.005 1158.1 262.005C1150.63 262.005 1143.16 262.005 1135.69 262.005C1134.82 260.124 1135.41 256.066 1135.41 253.635C1135.44 247.404 1135.47 241.171 1135.5 234.94C1117.34 234.909 1099.17 234.878 1081 234.847C1080.97 247.092 1080.94 259.34 1080.91 271.585C1082.61 272.351 1086.32 271.771 1088.44 271.771C1094.36 271.771 1100.28 271.771 1106.21 271.771C1107.09 273.712 1106.41 279.435 1106.39 282.095C1105.29 282.606 1102.1 282.445 1100.81 282.188C1100.78 282.188 1100.75 282.188 1100.72 282.188C1100.66 287.83 1100.59 293.473 1100.53 299.116C1105.55 299.147 1110.58 299.177 1115.6 299.209C1115.94 298.208 1115.79 296.507 1115.78 295.209C1115.75 291.923 1115.72 288.637 1115.69 285.35C1115.75 275.616 1115.82 265.88 1115.88 256.146C1110.86 256.146 1105.83 256.146 1100.81 256.146C1100.81 258.068 1100.81 259.991 1100.81 261.912C1099.53 262.496 1092.23 262.207 1090.3 262.191C1089.78 261.035 1090.11 258.586 1090.11 257.076C1090.11 253.139 1090.11 249.201 1090.11 245.264C1091.62 244.588 1098.46 245.078 1100.72 245.078C1109.15 245.078 1117.58 245.078 1126.02 245.078C1126.66 246.511 1126.2 249.584 1126.2 251.403C1126.2 256.393 1126.2 261.386 1126.2 266.377C1126.2 283.892 1126.2 301.411 1126.2 318.926C1127.84 319.66 1133.01 319.112 1135.22 319.112C1142.45 319.112 1149.67 319.112 1156.89 319.112C1156.93 315.888 1156.96 312.663 1156.99 309.439C1149.89 309.408 1142.79 309.377 1135.69 309.346C1134.92 307.732 1135.5 301.012 1135.5 297.999C1135.5 289.319 1135.5 280.637 1135.5 271.957C1136.7 271.419 1139.24 271.771 1140.8 271.771C1144.9 271.771 1148.99 271.771 1153.08 271.771C1167.4 271.771 1181.73 271.771 1196.05 271.771C1196.11 266.563 1196.17 261.354 1196.24 256.146C1193.2 256.146 1190.16 256.146 1187.12 256.146C1187.12 258.068 1187.12 259.991 1187.12 261.912Z" fill="#026CA9" fill-opacity="0.5"/>
<path d="M1090.11 282.281C1087.11 282.25 1084.1 282.219 1081.09 282.188C1080.41 283.716 1080.91 290.687 1080.91 292.977C1080.91 301.625 1080.91 310.277 1080.91 318.926C1084.69 318.988 1088.47 319.05 1092.25 319.112C1100.07 319.112 1107.88 319.112 1115.69 319.112C1115.72 315.857 1115.75 312.601 1115.78 309.346C1107.29 309.377 1098.79 309.408 1090.3 309.439C1089.64 307.962 1090.11 303.442 1090.11 301.44C1090.11 295.054 1090.11 288.667 1090.11 282.281Z" fill="#026CA9" fill-opacity="0.35"/>
<path d="M1070.86 302.929C1070.89 287.429 1070.92 271.924 1070.96 256.424C1070.92 256.332 1070.89 256.238 1070.86 256.145C1067.79 256.176 1064.72 256.207 1061.65 256.238C1061.69 258.098 1061.72 259.959 1061.75 261.819C1060.66 261.85 1059.58 261.881 1058.49 261.912C1054.43 261.943 1050.37 261.974 1046.31 262.005C1035.27 262.005 1024.23 262.005 1013.2 262.005C1013.17 236.771 1013.14 211.53 1013.1 186.296C1011.38 185.512 1006.24 186.183 1003.99 186.203C1003.27 187.812 1003.8 192.866 1003.8 195.039C1003.8 202.045 1003.8 209.053 1003.8 216.059C1003.8 240.735 1003.8 265.418 1003.8 290.094C1002.51 290.681 995.913 290.393 993.944 290.372C993.52 289.423 993.759 287.464 993.759 286.187C993.759 282.219 993.759 278.25 993.759 274.282C993.759 261.138 993.759 247.99 993.759 234.847C975.841 234.847 957.918 234.847 940 234.847C940 238.225 940 241.606 940 244.985C954.725 244.985 969.454 244.985 984.179 244.985C984.604 245.933 984.365 247.893 984.365 249.17C984.365 253.014 984.365 256.859 984.365 260.703C984.365 273.506 984.365 286.313 984.365 299.115C993.882 299.146 1003.4 299.177 1012.92 299.208C1013.59 297.717 1013.1 293.137 1013.1 291.117C1013.1 284.731 1013.1 278.343 1013.1 271.957C1013.97 271.569 1015.73 271.771 1016.92 271.771C1020.36 271.771 1023.8 271.771 1027.24 271.771C1038.68 271.771 1050.12 271.771 1061.56 271.771C1061.94 272.615 1061.75 274.332 1061.75 275.491C1061.75 278.839 1061.75 282.188 1061.75 285.536C1061.75 296.665 1061.75 307.797 1061.75 318.926C1064.72 318.957 1067.7 318.988 1070.68 319.019C1071.23 318.38 1070.86 315.793 1070.86 314.74C1070.86 310.803 1070.86 306.866 1070.86 302.929Z" fill="#026CA9" fill-opacity="0.1"/>
</g>
<defs>
<clipPath id="clip0_11233_26015">
<rect width="500" height="319.297" fill="white" transform="translate(940)"/>
</clipPath>
</defs>
</svg>
